<?xml version="1.0" standalone="no"?>
  <!DOCTYPE svg PUBLIC "-//W3C//DTD SVG 1.1//EN" "http://www.w3.org/Graphics/SVG/1.1/DTD/svg11.dtd" >
  <svg>
  <metadata>
  Created by font-carrier
  </metadata>
  <defs>
  <font id="Galdeano-Regular" horiz-adv-x="1189" vert-adv-y="1189" >
    <font-face
      
      font-family="Galdeano"
      
      font-weight="400"
      
      font-stretch="normal"
      
      units-per-em="1000"
      
      ascent="820"
      
      descent="-230"
      
    />
      <missing-glyph />

      

      
      <glyph glyph-name="uni21" unicode="&#x21;" d="M98 167L77 623L185 631L167 174L98 167M60 54Q89 95 130 124Q173 94 200 54Q171 11 130-16Q89 11 60 54Z"  horiz-adv-x="260" vert-adv-y="1000"  />

      
      <glyph glyph-name="uni22" unicode="&#x22;" d="M207 371L192 624L296 632L250 374L207 371M65 371L50 624L154 632L108 374L65 371Z"  horiz-adv-x="346" vert-adv-y="1000"  />

      
      <glyph glyph-name="uni23" unicode="&#x23;" d="M330 0L263 0L285 111L180 111L158 0L91 0L113 111L17 111L32 180L127 180L147 281L52 281L66 350L160 350L186 477L253 477L227 350L332 350L358 477L425 477L399 350L496 350L482 281L386 281L366 180L462 180L447 111L352 111L330 0M214 281L194 180L299 180L319 281L214 281Z"  horiz-adv-x="516" vert-adv-y="1000"  />

      
      <glyph glyph-name="uni24" unicode="&#x24;" d="M82 14L112 107Q176 64 220 54L234 236Q153 272 120.50 308Q88 344 88 400.50Q88 457 134 497.50Q180 538 258 545L265 628L314 628L307 547Q366 542 411 522L385 433Q339 464 302 476L289 307Q372 270 403 237Q434 204 434 145.50Q434 87 386.50 41.50Q339-4 264-13L257-99L208-99L214-15Q149-12 82 14M361 109Q361 172 282 214L269 49Q326 49 359 82Q361 104 361 109M162 457Q162 376 242 330L254 484Q213 484 162 457Z"  horiz-adv-x="516" vert-adv-y="1000"  />

      
      <glyph glyph-name="uni25" unicode="&#x25;" d="M640.50-15Q640.50-15 608.25-15Q576-15 539 29.50Q502 74 502 150Q502 226 540 271Q578 316 642 316Q706 316 743.50 271.50Q781 227 781 151Q781 75 743 30Q705-15 640.50-15M205.50 216Q205.50 216 173.25 216Q141 216 104 260.50Q67 305 67 381Q67 457 105 502Q143 547 207 547Q271 547 308.50 502.50Q346 458 346 382Q346 306 308 261Q270 216 205.50 216M309-26L249-2L539 558L599 534L309-26M137 379Q137 326 154.50 297Q172 268 204 268Q276 268 276 381.50Q276 495 208 495Q137 495 137 379M572 148Q572 95 589.50 66Q607 37 639 37Q711 37 711 150.50Q711 264 643 264Q572 264 572 148Z"  horiz-adv-x="848" vert-adv-y="1000"  />

      
      <glyph glyph-name="uni26" unicode="&#x26;" d="M398 316L493 320Q493 193 451 112L490 74L577 13L577 3L456-22L399 44Q335-15 237-15Q139-15 85.50 25.50Q32 66 32 148Q32 201 60 236.50Q88 272 138 303Q89 356 76.50 388Q64 420 64 478.50Q64 537 114 578.50Q164 620 237.50 620Q311 620 353 584.50Q395 549 395 486.50Q395 424 359 384Q323 344 257 303L402 160Q409 195 409 220L398 316M360 84L184 256Q119 209 119 163Q119 46 245 46Q319 46 360 84M213 346Q262 375 288 405Q314 435 314 480Q314 564 233 564Q203 564 171 555Q147 525 147 483Q147 441 163.50 410.50Q180 380 213 346Z"  horiz-adv-x="582" vert-adv-y="1000"  />

      
      <glyph glyph-name="uni27" unicode="&#x27;" d="M65 372L50 625L154 633L108 375L65 372Z"  horiz-adv-x="204" vert-adv-y="1000"  />

      
      <glyph glyph-name="uni28" unicode="&#x28;" d="M289-186L247-230Q163-148 116.50-25Q70 98 70 237.50Q70 377 116.50 497.50Q163 618 247 695L289 651Q229 591 194.50 479Q160 367 160 231Q160 95 194.50-16.50Q229-128 289-186Z"  horiz-adv-x="264" vert-adv-y="1000"  />

      
      <glyph glyph-name="uni29" unicode="&#x29;" d="M-25-186Q35-128 69.50-16.50Q104 95 104 231Q104 367 69.50 479Q35 591-25 651L17 695Q101 618 147.50 497.50Q194 377 194 237.50Q194 98 147.50-25Q101-148 17-230L-25-186Z"  horiz-adv-x="264" vert-adv-y="1000"  />

      
      <glyph glyph-name="uni2a" unicode="&#x2a;" d="M193 399L221 375L126 230L62 285L193 399M233 375L261 399L392 285L328 230L233 375M245 451L209 451L185 613L269 613L245 451M203 442L191 408L30 447L61 524L203 442M262 408L250 442L392 524L423 447L262 408Z"  horiz-adv-x="453" vert-adv-y="1000"  />

      
      <glyph glyph-name="uni2b" unicode="&#x2b;" d="M81 196L81 265L223 265L223 407L292 407L292 265L435 265L435 196L292 196L292 53L223 53L223 196L81 196Z"  horiz-adv-x="516" vert-adv-y="1000"  />

      
      <glyph glyph-name="uni2c" unicode="&#x2c;" d="M35 54Q64 95 105 124Q150 93 176 54Q153-45 78-154L44-130Q74-65 86-2Q57 20 35 54Z"  horiz-adv-x="226" vert-adv-y="1000"  />

      
      <glyph glyph-name="uni2d" unicode="&#x2d;" d="M40 205L40 275L276 287L276 217L40 205Z"  horiz-adv-x="316" vert-adv-y="1000"  />

      
      <glyph glyph-name="uni2e" unicode="&#x2e;" d="M40 54Q69 95 110 124Q153 94 180 54Q151 11 110-16Q69 11 40 54Z"  horiz-adv-x="220" vert-adv-y="1000"  />

      
      <glyph glyph-name="uni2f" unicode="&#x2f;" d="M112-40L40-40L227 660L299 660L112-40Z"  horiz-adv-x="309" vert-adv-y="1000"  />

      
      <glyph glyph-name="uni30" unicode="&#x30;" d="M256-15Q256-15 202-15Q148-15 91 62.50Q34 140 34 263.50Q34 387 92.50 467Q151 547 259.50 547Q368 547 425 469Q482 391 482 268Q482 145 423 65Q364-15 256-15M259.50 481Q259.50 481 224.75 481Q190 481 153.50 420.50Q117 360 117 264Q117 168 152 109.50Q187 51 256.50 51Q326 51 362.50 111Q399 171 399 268Q399 365 364 423Q329 481 259.50 481Z"  horiz-adv-x="516" vert-adv-y="1000"  />

      
      <glyph glyph-name="uni31" unicode="&#x31;" d="M116 428L107 471L306 547L327 547L327 60L433 68L436 0L124 0L126 44L239 52L250 198L250 452L116 428Z"  horiz-adv-x="516" vert-adv-y="1000"  />

      
      <glyph glyph-name="uni32" unicode="&#x32;" d="M79 0L68 37Q243 216 291 294Q322 344 322 389Q322 434 297 458Q272 482 220.50 482Q169 482 107 453L85 512Q157 547 242 547Q327 547 371.50 508Q416 469 416 401.50Q416 334 371.50 273Q327 212 168 70L330 70L451 86L443 0L79 0Z"  horiz-adv-x="516" vert-adv-y="1000"  />

      
      <glyph glyph-name="uni33" unicode="&#x33;" d="M71-126L67-68Q189-60 256.50-14Q324 32 324 106Q324 165 283 191.50Q242 218 143 223L138 279Q312 305 312 402Q312 482 204 482L92 439L64 516Q131 547 217.50 547Q304 547 352 513Q400 479 400 423Q400 367 363 325.50Q326 284 257 260Q329 255 372.50 210.50Q416 166 416 98Q416 3 318.50-60.50Q221-124 71-126Z"  horiz-adv-x="516" vert-adv-y="1000"  />

      
      <glyph glyph-name="uni34" unicode="&#x34;" d="M39 93L32 139L340 547L379 547L379 157L484 171L477 93L379 93L379-107L283-119L299 60L299 93L39 93M115 155L299 155L299 401L115 155Z"  horiz-adv-x="516" vert-adv-y="1000"  />

      
      <glyph glyph-name="uni35" unicode="&#x35;" d="M103 256L114 542L278 542L399 558L391 475L179 475L173 311L189 311Q300 311 362.50 263.50Q425 216 425 131Q425 21 332.50-45Q240-111 80-116L76-57Q201-48 267-2Q333 44 333 118.50Q333 193 293 226Q253 259 169 259Q136 259 103 256Z"  horiz-adv-x="516" vert-adv-y="1000"  />

      
      <glyph glyph-name="uni36" unicode="&#x36;" d="M465 195Q465 195 465 152.50Q465 110 408 47.50Q351-15 257.50-15Q164-15 108 56Q52 127 52 255Q52 438 146 541Q240 644 418 657L422 598Q273 582 207.50 506Q142 430 142 271Q142 154 172 102Q202 50 270 50Q315 50 351 72Q375 106 375 180.50Q375 255 344.50 287.50Q314 320 250 320Q232 320 197 315L192 351L299 378Q371 378 418 329Q465 280 465 195Z"  horiz-adv-x="516" vert-adv-y="1000"  />

      
      <glyph glyph-name="uni37" unicode="&#x37;" d="M66 448L76 547L450 547L455 516L179-125L99-90L193 85L352 464L187 464L66 448Z"  horiz-adv-x="516" vert-adv-y="1000"  />

      
      <glyph glyph-name="uni38" unicode="&#x38;" d="M164 573Q153 537 153 502Q153 430 256 377Q311 408 336 437.50Q361 467 361 504.50Q361 542 329 567.50Q297 593 246.50 593Q196 593 164 573M258 305Q138 250 138 162Q138 115 172.50 81.50Q207 48 261 48Q315 48 352 71Q374 115 374 160Q374 205 347.50 238Q321 271 258 305M253-17Q253-17 208.50-17Q164-17 107.50 32.50Q51 82 51 148.50Q51 215 81.50 255.50Q112 296 191 341Q127 376 99.50 414Q72 452 72 504Q72 571 126.50 614Q181 657 259.50 657Q338 657 390 613Q442 569 442 508Q442 415 327 342Q464 273 464 166Q464 87 403 35Q342-17 253-17Z"  horiz-adv-x="516" vert-adv-y="1000"  />

      
      <glyph glyph-name="uni39" unicode="&#x39;" d="M51 336.50Q51 336.50 51 379.25Q51 422 108 484.50Q165 547 258.50 547Q352 547 408 475.50Q464 404 464 276Q464 93 370-10.50Q276-114 98-126L94-67Q243-52 308.50 24.50Q374 101 374 260Q374 377 343.50 429.50Q313 482 246 482Q201 482 165 460Q141 424 141 350Q141 276 171.50 243.50Q202 211 266 211Q282 211 319 216L324 180L217 153Q144 153 97.50 202Q51 251 51 336.50Z"  horiz-adv-x="516" vert-adv-y="1000"  />

      
      <glyph glyph-name="uni3a" unicode="&#x3a;" d="M40 336Q69 377 110 406Q153 376 180 336Q151 293 110 266Q69 293 40 336M40 54Q69 95 110 124Q153 94 180 54Q151 11 110-16Q69 11 40 54Z"  horiz-adv-x="220" vert-adv-y="1000"  />

      
      <glyph glyph-name="uni3b" unicode="&#x3b;" d="M35 54Q64 95 105 124Q150 93 176 54Q153-45 78-154L44-130Q74-65 86-2Q57 20 35 54M35 336Q64 377 105 406Q148 376 175 336Q146 293 105 266Q64 293 35 336Z"  horiz-adv-x="226" vert-adv-y="1000"  />

      
      <glyph glyph-name="uni3c" unicode="&#x3c;" d="M155 230L437 112L428 47L79 202L79 259L428 414L437 349L155 230Z"  horiz-adv-x="516" vert-adv-y="1000"  />

      
      <glyph glyph-name="uni3d" unicode="&#x3d;" d="M81 101L81 170L435 170L435 101L81 101M81 291L81 360L435 360L435 291L81 291Z"  horiz-adv-x="516" vert-adv-y="1000"  />

      
      <glyph glyph-name="uni3e" unicode="&#x3e;" d="M67 112L349 230L67 349L76 414L425 259L425 202L76 47L67 112Z"  horiz-adv-x="516" vert-adv-y="1000"  />

      
      <glyph glyph-name="uni3f" unicode="&#x3f;" d="M325 512Q325 480 301.50 438.50Q278 397 250 366Q174 282 171 270Q185 250 241 221L220 171Q168 182 127.50 206Q87 230 87 251.50Q87 273 110.50 301.50Q134 330 162 356.50Q190 383 213.50 421.50Q237 460 237 489.50Q237 519 225.50 534.50Q214 550 192 557Q158 568 117 570L34 538L10 616Q93 631 156 631Q325 631 325 512M96 54Q124 97 166 124Q208 97 236 54Q208 11 166-16Q124 11 96 54Z"  horiz-adv-x="367" vert-adv-y="1000"  />

      
      <glyph glyph-name="uni40" unicode="&#x40;" d="M323 150Q320 132 320 121Q320 64 391 64Q434 64 478 87L478 190Q387 178 323 150M405 368L370 366L292 297L250 367Q322 424 410 424Q556 424 556 277L556 116L567 57Q618 61 647 112Q676 163 676 251Q676 369 603.50 444Q531 519 418 519Q286 519 198.50 430.50Q111 342 111 204Q111 66 200.50-24Q290-114 433-114Q516-114 609-76L629-120Q532-173 418-173Q250-173 142.50-67.50Q35 38 35 202.50Q35 367 143 475Q251 583 407.50 583Q564 583 657.50 491.50Q751 400 751 256Q751 153 694 79.50Q637 6 557 6Q524 6 508.50 15.50Q493 25 482 53Q426 6 365.50 6Q305 6 272.50 32.50Q240 59 240 103Q240 165 285 191.50Q330 218 478 243Q478 314 462 341Q446 368 405 368Z"  horiz-adv-x="786" vert-adv-y="1000"  />

      
      <glyph glyph-name="uni41" unicode="&#x41;" d="M10-1L223 534L242 603L321 609L541 0L424 0L394 151L147 151L111-1L10-1M276 507L175 221L371 221L276 507Z"  horiz-adv-x="551" vert-adv-y="1000"  />

      
      <glyph glyph-name="uni42" unicode="&#x42;" d="M84 0L98 198L98 467L80 599L89 600Q198 620 264 620Q455 620 455 462Q455 368 383 322Q497 286 497 169Q497 85 427.50 35Q358-15 240-15Q152-15 84 0M193 52Q229 46 272.50 46Q316 46 370 62Q405 102 405 162Q405 222 370 250Q335 278 260 278L182 278L182 197L191 66L193 52M182 407L182 336L228 336Q363 337 363 452Q363 560 250 560Q224 560 192 555L182 407Z"  horiz-adv-x="547" vert-adv-y="1000"  />

      
      <glyph glyph-name="uni43" unicode="&#x43;" d="M346-15Q210-15 132.50 67Q55 149 55 295Q55 441 144 530.50Q233 620 381 620Q457 620 538 590L506 485L384 551Q256 551 206 497Q156 443 156 315.50Q156 188 208.50 119.50Q261 51 345 51Q429 51 511 119L543 32Q453-15 346-15Z"  horiz-adv-x="593" vert-adv-y="1000"  />

      
      <glyph glyph-name="uni44" unicode="&#x44;" d="M84 0L98 198L98 467L80 599Q185 620 279 620Q440 620 517.50 546.50Q595 473 595 320Q595 167 499.50 76Q404-15 243-15Q164-15 84 0M191 64Q231 51 283 51Q366 51 441 86Q465 120 479.50 181Q494 242 494 307Q494 436 441.50 495Q389 554 274 554Q234 554 192 546L182 407L182 197L191 64Z"  horiz-adv-x="650" vert-adv-y="1000"  />

      
      <glyph glyph-name="uni45" unicode="&#x45;" d="M178 407L178 344L274 344L369 354L361 279L178 279L178 197L187 70L319 70L428 82L418-6L309 0L192 0L80-6L94 198L94 408L80 605L419 605L410 523L298 535L187 535L178 407Z"  horiz-adv-x="478" vert-adv-y="1000"  />

      
      <glyph glyph-name="uni46" unicode="&#x46;" d="M187 535L178 407L178 332L274 332L369 342L361 267L178 267L178 197L192 0L80 0L94 198L94 408L80 605L419 605L410 523L298 535L187 535Z"  horiz-adv-x="439" vert-adv-y="1000"  />

      
      <glyph glyph-name="uni47" unicode="&#x47;" d="M338-15Q205-15 130 66.50Q55 148 55 294Q55 440 144 529.50Q233 619 381 619Q462 619 548 589L516 484L383 550Q256 550 206 496Q156 442 156 315Q156 188 206 119.50Q256 51 341 51Q411 51 473 88L469 203L453 264L565 270L552 33Q469-12 365-14Q358-15 338-15Z"  horiz-adv-x="630" vert-adv-y="1000"  />

      
      <glyph glyph-name="uni48" unicode="&#x48;" d="M80 0L94 198L94 408L80 605L192 605L178 407L178 353L486 353L486 408L472 605L584 605L570 407L570 197L584 0L472 0L486 198L486 283L178 283L178 197L192 0L80 0Z"  horiz-adv-x="664" vert-adv-y="1000"  />

      
      <glyph glyph-name="uni49" unicode="&#x49;" d="M85 0L99 198L99 408L85 605L197 605L183 407L183 197L197 0L85 0Z"  horiz-adv-x="282" vert-adv-y="1000"  />

      
      <glyph glyph-name="uni4a" unicode="&#x4a;" d="M99 12Q104 154 104 338L104 408L90 605L202 605L188 407L188 106Q188 7 151-50.50Q114-108 8-175L-25-88Q17-69 52.50-40Q88-11 99 12Z"  horiz-adv-x="272" vert-adv-y="1000"  />

      
      <glyph glyph-name="uni4b" unicode="&#x4b;" d="M375 96L211 307L211 317L359 494L408 605L530 605L530 597L299 333L475 102L560 9L560-1L425-8L375 96M80 0L94 198L94 408L80 605L192 605L178 407L178 197L192 0L80 0Z"  horiz-adv-x="555" vert-adv-y="1000"  />

      
      <glyph glyph-name="uni4c" unicode="&#x4c;" d="M80-6L94 198L94 408L80 605L192 605L178 407L178 197L187 70L294 70L403 82L393-6L284 0L189 0L80-6Z"  horiz-adv-x="400" vert-adv-y="1000"  />

      
      <glyph glyph-name="uni4d" unicode="&#x4d;" d="M572 0L576 198L561 452L392 70L364 67L167 452L156 197L163 0L64 0L88 198L99 408L92 602L196 606L214 540L382 193L533 555L544 603L650 607L643 407L654 197L678 0L572 0Z"  horiz-adv-x="742" vert-adv-y="1000"  />

      
      <glyph glyph-name="uni4e" unicode="&#x4e;" d="M500-3L472 62L166 446L166 197L180 0L80 0L94 198L94 408L80 603L174 607L202 540L490 178L490 408L476 605L576 605L562 407L562 221L576 0L500-3Z"  horiz-adv-x="656" vert-adv-y="1000"  />

      
      <glyph glyph-name="uni4f" unicode="&#x4f;" d="M336.50-15Q336.50-15 269.75-15Q203-15 129 67.50Q55 150 55 297Q55 444 136 532Q217 620 351 620Q485 620 559 538Q633 456 633 309Q633 162 551.50 73.50Q470-15 336.50-15M156 297Q156 180 209 115.50Q262 51 358 51Q415 51 469 74Q495 100 513.50 167.50Q532 235 532 306Q532 427 479.50 490.50Q427 554 327 554Q270 554 219 531Q193 506 174.50 437Q156 368 156 297Z"  horiz-adv-x="688" vert-adv-y="1000"  />

      
      <glyph glyph-name="uni50" unicode="&#x50;" d="M218 250L215 289Q302 289 340 319Q378 349 378 419Q378 560 246 560Q225 560 192 555L182 407L182 197L196 0L84 0L98 198L98 467L80 599Q204 620 267 620Q476 620 476 429Q476 351 434.50 303.50Q393 256 316 245L218 250Z"  horiz-adv-x="521" vert-adv-y="1000"  />

      
      <glyph glyph-name="uni51" unicode="&#x51;" d="M156 297Q156 180 209 115.50Q262 51 358 51Q415 51 469 74Q495 100 513.50 167.50Q532 235 532 306Q532 427 479.50 490.50Q427 554 327 554Q270 554 219 531Q193 506 174.50 437Q156 368 156 297M333-15Q203-15 129 67.50Q55 150 55 297Q55 444 136 532Q217 620 351 620Q485 620 559 538Q633 456 633 311Q633 219 600.50 147.50Q568 76 507 35L630-73L684-108L685-128L570-148L542-102L449 5Q394-15 333-15Z"  horiz-adv-x="688" vert-adv-y="1000"  />

      
      <glyph glyph-name="uni52" unicode="&#x52;" d="M217 272L217 297Q300 297 335 326Q370 355 370 423Q370 560 243 560Q225 560 192 555L182 407L182 197L196 0L84 0L98 198L98 467L80 599Q198 620 265 620Q468 620 468 433Q468 362 433 316.50Q398 271 332 256L449 102L534 9L534-1L399-8L349 96L217 272Z"  horiz-adv-x="544" vert-adv-y="1000"  />

      
      <glyph glyph-name="uni53" unicode="&#x53;" d="M55 17L89 118Q147 80 183.50 66Q220 52 259 52Q325 52 363 92Q366 107 366 123Q366 170 334.50 202Q303 234 258.50 253Q214 272 169 293Q124 314 92.50 353Q61 392 61 450Q61 525 123.50 571Q186 617 288 617Q359 617 421 589L392 495Q308 551 253.50 551Q199 551 144 517Q144 458 175 420.50Q206 383 251 363Q296 343 340.50 323Q385 303 416 265.50Q447 228 447 169Q447 89 382.50 37Q318-15 227-15Q136-15 55 17Z"  horiz-adv-x="502" vert-adv-y="1000"  />

      
      <glyph glyph-name="uni54" unicode="&#x54;" d="M20 529L25 605L370 605L479 617L469 529L358 535L293 535L284 407L284 197L298 0L186 0L200 198L200 408L190 535L130 535L20 529Z"  horiz-adv-x="480" vert-adv-y="1000"  />

      
      <glyph glyph-name="uni55" unicode="&#x55;" d="M84 263L84 408L70 605L191 605L178 407L178 300Q178 171 210.50 115.50Q243 60 320.50 60Q398 60 433.50 109Q469 158 469 268L469 407L456 605L561 605L547 408L547 275Q547-15 304-15Q84-15 84 263Z"  horiz-adv-x="631" vert-adv-y="1000"  />

      
      <glyph glyph-name="uni56" unicode="&#x56;" d="M233-5L20 602L136 611L152 484L274 100L405 480L417 605L538 605L309 1L233-5Z"  horiz-adv-x="548" vert-adv-y="1000"  />

      
      <glyph glyph-name="uni57" unicode="&#x57;" d="M233-5L30 602L144 611L160 484L269 112L382 486L345 602L459 611L475 484L574 113L696 480L708 605L829 605L604 1L533-5L421 355L294 1L233-5Z"  horiz-adv-x="843" vert-adv-y="1000"  />

      
      <glyph glyph-name="uni58" unicode="&#x58;" d="M25 0L25 8L227 310L133 468L33 593L33 602L170 612L224 489L283 388L347 494L393 605L515 605L515 597L323 322L434 136L534 11L534 2L397-8L345 112L265 245L193 111L147 0L25 0Z"  horiz-adv-x="544" vert-adv-y="1000"  />

      
      <glyph glyph-name="uni59" unicode="&#x59;" d="M203 0L217 198L217 242L15 603L147 612L171 514L262 330L348 505L372 605L490 605L301 262L301 197L315 0L203 0Z"  horiz-adv-x="495" vert-adv-y="1000"  />

      
      <glyph glyph-name="uni5a" unicode="&#x5a;" d="M31-8L20 38L349 536L162 536L40 500L28 605L380 605L454 614L465 567L138 70L324 70L453 110L465 0L99 0L31-8Z"  horiz-adv-x="496" vert-adv-y="1000"  />

      
      <glyph glyph-name="uni5b" unicode="&#x5b;" d="M223 685L214 603L143 613L143-126L214-116L223-198Q126-198 98-179Q70-160 70-96L70 583Q70 648 98 666.50Q126 685 223 685Z"  horiz-adv-x="233" vert-adv-y="1000"  />

      
      <glyph glyph-name="uni5c" unicode="&#x5c;" d="M269-40L197-40L10 660L82 660L269-40Z"  horiz-adv-x="309" vert-adv-y="1000"  />

      
      <glyph glyph-name="uni5d" unicode="&#x5d;" d="M19 603L10 685Q107 685 135 666.50Q163 648 163 583L163-96Q163-160 135-179Q107-198 10-198L19-116L90-126L90 613L19 603Z"  horiz-adv-x="233" vert-adv-y="1000"  />

      
      <glyph glyph-name="uni5e" unicode="&#x5e;" d="M80 278L252 605L309 605L481 278L401 278L282 515L160 278L80 278Z"  horiz-adv-x="561" vert-adv-y="1000"  />

      
      <glyph glyph-name="uni5f" unicode="&#x5f;" d="M15-95L15-26L365-26L365-95L15-95Z"  horiz-adv-x="380" vert-adv-y="1000"  />

      
      <glyph glyph-name="uni60" unicode="&#x60;" d="M308 534L285 502L111 605L170 669L308 534Z"  horiz-adv-x="430" vert-adv-y="1000"  />

      
      <glyph glyph-name="uni61" unicode="&#x61;" d="M173.50-15Q173.50-15 141.25-15Q109-15 74.50 19.50Q40 54 40 114Q40 174 89 203Q138 232 295 261Q295 337 278 366Q261 395 217 395Q193 395 179 393L95 319L50 394Q127 455 222 455Q379 455 379 297L379 112L397-1L304-15L300 35Q238-15 173.50-15M125 118Q125 85 145.50 66Q166 47 209.50 47Q253 47 295 78L295 204Q199 190 132 161Q125 134 125 118Z"  horiz-adv-x="454" vert-adv-y="1000"  />

      
      <glyph glyph-name="uni62" unicode="&#x62;" d="M66 7L80 205L80 567L65 670L176 680L162 482L162 407Q220 454 290 454Q360 454 401 397.50Q442 341 442 245Q442 126 378.50 55.50Q315-15 208-15Q135-15 66 7M162 57Q184 46 228 46Q272 46 313 56Q350 101 350 215Q350 385 261 385Q213 385 162 361L162 57Z"  horiz-adv-x="492" vert-adv-y="1000"  />

      
      <glyph glyph-name="uni63" unicode="&#x63;" d="M243.50-15Q243.50-15 201.75-15Q160-15 105 46.50Q50 108 50 213Q50 318 112 386Q174 454 275 454Q346 454 392 431L365 345L241 394Q188 388 165 347Q142 306 142 221.50Q142 137 170.50 91.50Q199 46 253.50 46Q308 46 371 97L398 23Q327-15 243.50-15Z"  horiz-adv-x="428" vert-adv-y="1000"  />

      
      <glyph glyph-name="uni64" unicode="&#x64;" d="M335 35Q271-15 201.50-15Q132-15 91 41Q50 97 50 193Q50 311 112.50 382.50Q175 454 278 454Q307 454 332 450L332 565L317 670L425 680L414 482L414 112L432-1L339-15L335 35M231 54Q277 54 330 78L330 382Q297 393 260 393Q223 393 180 383Q142 332 142 225Q142 54 231 54Z"  horiz-adv-x="494" vert-adv-y="1000"  />

      
      <glyph glyph-name="uni65" unicode="&#x65;" d="M254.50-15Q254.50-15 209.25-15Q164-15 107 45Q50 105 50 210.50Q50 316 108 385Q166 454 249.50 454Q333 454 375 413Q417 372 417 298Q417 271 412 233L142 224Q142 139 171.50 92.50Q201 46 255 46Q326 46 386 97L413 23Q345-15 254.50-15M144 276L326 284Q325 345 306 369Q287 393 244 393Q201 393 177 384Q152 357 144 276Z"  horiz-adv-x="467" vert-adv-y="1000"  />

      
      <glyph glyph-name="uni66" unicode="&#x66;" d="M13 371L10 410L102 439L102 457Q102 564 152 626Q202 688 288 688Q332 688 372 673L348 595L262 628Q219 620 201.50 585.50Q184 551 184 474L184 439L308 439L305 386L184 377L184 197L195 0L88 0L102 198L102 371L13 371Z"  horiz-adv-x="312" vert-adv-y="1000"  />

      
      <glyph glyph-name="uni67" unicode="&#x67;" d="M78 80Q78 97 87 112.50Q96 128 127 166Q59 203 59 293Q59 368 107.50 411Q156 454 229.50 454Q303 454 341 431L470 455L460 381L389 385Q408 351 408 306Q408 231 359.50 188Q311 145 226 145Q195 145 168 151L142 97Q161 83 187.50 76.50Q214 70 281 63L358 54Q450 42 450-44Q450-121 384.50-170Q319-219 215-219Q136-219 90.50-188Q45-157 45-103Q45-32 124 16Q78 40 78 80M126-80Q126-163 248.50-163Q371-163 371-76Q371-52 365-35L159 2Q126-29 126-80M146 301Q146 201 234.50 201Q323 201 323 301Q323 352 300.50 375Q278 398 237 398Q196 398 167 389Q146 364 146 301Z"  horiz-adv-x="500" vert-adv-y="1000"  />

      
      <glyph glyph-name="uni68" unicode="&#x68;" d="M66 0L80 198L80 567L65 670L173 680L162 484L162 401Q243 454 325 454Q430 454 430 316L430 0L332-5L346 210L346 317Q346 354 334 369.50Q322 385 294 385Q233 385 162 348L162 197L173 0L66 0Z"  horiz-adv-x="506" vert-adv-y="1000"  />

      
      <glyph glyph-name="uni69" unicode="&#x69;" d="M58 0L72 198L72 338L57 441L160 451L149 255L149 197L160 0L58 0M44 603Q75 646 111 670Q150 641 178 603Q149 561 111 536Q72 561 44 603Z"  horiz-adv-x="229" vert-adv-y="1000"  />

      
      <glyph glyph-name="uni6a" unicode="&#x6a;" d="M74-56Q89 48 89 198L89 338L74 441L177 451L166 255L166 85Q166-24 127.50-91.50Q89-159-7-219L-40-132Q33-100 74-56M60 603Q87 643 127 670Q168 642 194 603Q169 565 127 536Q89 561 60 603Z"  horiz-adv-x="256" vert-adv-y="1000"  />

      
      <glyph glyph-name="uni6b" unicode="&#x6b;" d="M66 0L80 198L80 567L65 670L173 680L162 484L162 197L173 0L66 0M180 246L180 253L279 360L322 439L427 439L427 431L270 257L383 98L466 12L466 2L338-3L295 82L180 246Z"  horiz-adv-x="456" vert-adv-y="1000"  />

      
      <glyph glyph-name="uni6c" unicode="&#x6c;" d="M66 0L80 198L80 567L65 670L173 680L162 484L162 197L173 0L66 0Z"  horiz-adv-x="242" vert-adv-y="1000"  />

      
      <glyph glyph-name="uni6d" unicode="&#x6d;" d="M421 348L423 316L423 0L325-5L339 212L339 317Q339 354 327.50 369.50Q316 385 289 385Q228 385 162 348L162 0L66 0L80 198L80 339L65 442L162 452L162 401Q242 454 321 454Q385 454 410 395Q498 454 580 454Q630 454 656 418.50Q682 383 682 316L682 0L584-5L598 212L598 317Q598 354 586.50 369.50Q575 385 548 385Q487 385 421 348Z"  horiz-adv-x="757" vert-adv-y="1000"  />

      
      <glyph glyph-name="uni6e" unicode="&#x6e;" d="M66 0L80 198L80 339L65 442L162 452L162 401Q243 454 325 454Q376 454 403 418.50Q430 383 430 316L430 0L332-5L346 210L346 317Q346 354 334 369.50Q322 385 294 385Q233 385 162 348L162 0L66 0Z"  horiz-adv-x="505" vert-adv-y="1000"  />

      
      <glyph glyph-name="uni6f" unicode="&#x6f;" d="M246.50-15Q246.50-15 199.75-15Q153-15 101.50 44Q50 103 50 212.50Q50 322 105 388Q160 454 253.50 454Q347 454 398.50 395.50Q450 337 450 227.50Q450 118 395 51.50Q340-15 246.50-15M261 46Q291 46 325 56Q358 103 358 204.50Q358 306 328.50 349.50Q299 393 237 393Q214 393 175 383Q142 337 142 235Q142 133 170.50 89.50Q199 46 261 46Z"  horiz-adv-x="500" vert-adv-y="1000"  />

      
      <glyph glyph-name="uni70" unicode="&#x70;" d="M83-21L83 327L65 440L158 454L162 404Q226 454 295.50 454Q365 454 406 398Q447 342 447 246Q447 128 384.50 56.50Q322-15 219-15Q188-15 167-11L177-209L72-219L83-21M167 57Q198 46 239 46Q280 46 317 56Q355 106 355 214Q355 385 266 385Q218 385 167 361L167 57Z"  horiz-adv-x="497" vert-adv-y="1000"  />

      
      <glyph glyph-name="uni71" unicode="&#x71;" d="M231 54Q277 54 330 78L330 382Q303 393 261 393Q219 393 179 383Q142 338 142 224Q142 54 231 54M330 32Q270-15 201-15Q132-15 91 41.50Q50 98 50 194Q50 313 113.50 383.50Q177 454 284 454Q350 454 430 440L412 327L412-106L427-209L316-219L330-21L330 32Z"  horiz-adv-x="495" vert-adv-y="1000"  />

      
      <glyph glyph-name="uni72" unicode="&#x72;" d="M66 0L80 198L80 338L65 441L166 451L162 376Q197 418 224 436Q251 454 280.50 454Q310 454 339 441L312 355L222 382Q185 349 157 298L157 197L168 0L66 0Z"  horiz-adv-x="334" vert-adv-y="1000"  />

      
      <glyph glyph-name="uni73" unicode="&#x73;" d="M40 9L67 96Q138 46 186 46Q234 46 267 69Q269 75 269 99.50Q269 124 250.50 141.50Q232 159 166 193Q100 227 76.50 255.50Q53 284 53 324Q53 380 102.50 417Q152 454 218.50 454Q285 454 331 434L307 356Q244 393 201.50 393Q159 393 125 373Q125 338 143.50 317Q162 296 225 263.50Q288 231 316.50 200Q345 169 345 129Q345 68 292.50 26.50Q240-15 169.50-15Q99-15 40 9Z"  horiz-adv-x="390" vert-adv-y="1000"  />

      
      <glyph glyph-name="uni74" unicode="&#x74;" d="M28 386L25 425L115 454L148 568L191 568L197 454L323 454L320 401L194 392L194 143Q194 90 204.50 69.50Q215 49 246.50 49Q278 49 314 59L305 2Q271-15 216-15Q161-15 134.50 15Q108 45 108 118Q108 143 114 386L28 386Z"  horiz-adv-x="348" vert-adv-y="1000"  />

      
      <glyph glyph-name="uni75" unicode="&#x75;" d="M75 123L75 437L173 442L159 227L159 122Q159 85 171 69.50Q183 54 211 54Q271 54 343 91L331 437L427 442L427 101L442-2L343-12L343 38Q262-15 180-15Q129-15 102 20.50Q75 56 75 123Z"  horiz-adv-x="502" vert-adv-y="1000"  />

      
      <glyph glyph-name="uni76" unicode="&#x76;" d="M174-5L20 439L126 446L138 355L220 86L315 340L326 439L430 439L252 1L174-5Z"  horiz-adv-x="450" vert-adv-y="1000"  />

      
      <glyph glyph-name="uni77" unicode="&#x77;" d="M171-5L20 439L126 446L138 355L219 78L308 339L277 440L380 446L390 355L458 90L547 340L558 439L662 439L488 1L413-5L338 239L251 1L171-5Z"  horiz-adv-x="682" vert-adv-y="1000"  />

      
      <glyph glyph-name="uni78" unicode="&#x78;" d="M261 80L204 168L153 80L126 0L15 0L15 7L169 223L95 341L22 431L22 441L137 446L178 357L219 293L263 359L290 439L401 439L401 432L254 238L343 100L416 10L416 0L300-5L261 80Z"  horiz-adv-x="421" vert-adv-y="1000"  />

      
      <glyph glyph-name="uni79" unicode="&#x79;" d="M15-111L112-102Q151-48 179 10L10 439L117 446L129 352L219 104Q264 220 306 340L317 439L421 439L272 59Q219-77 167.50-135Q116-193 43-200L15-111Z"  horiz-adv-x="426" vert-adv-y="1000"  />

      
      <glyph glyph-name="uni7a" unicode="&#x7a;" d="M37-6L30 28L255 374L162 374L58 351L51 444L300 434L370 445L377 411L152 65L275 65L377 87L386-5L105 5L37-6Z"  horiz-adv-x="411" vert-adv-y="1000"  />

      
      <glyph glyph-name="uni7b" unicode="&#x7b;" d="M118-96L129 141Q129 159 101.50 179.50Q74 200 40 208L46 261Q76 268 102.50 288.50Q129 309 129 326L118 583Q118 648 146.50 666.50Q175 685 276 685L267 603L196 613L196 324Q196 295 180.50 276Q165 257 121 233Q163 212 179.50 192.50Q196 173 196 143L196-126L267-116L276-198Q175-198 146.50-179.50Q118-161 118-96Z"  horiz-adv-x="286" vert-adv-y="1000"  />

      
      <glyph glyph-name="uni7c" unicode="&#x7c;" d="M150-145L150 681L232 689L232-145L150-145Z"  horiz-adv-x="382" vert-adv-y="1000"  />

      
      <glyph glyph-name="uni7d" unicode="&#x7d;" d="M168 583L157 346Q157 328 184.50 307.50Q212 287 246 279L240 226Q210 219 183.50 198.50Q157 178 157 161L168-96Q168-161 139.50-179.50Q111-198 10-198L19-116L90-126L90 163Q90 192 105.50 211Q121 230 165 254Q123 275 106.50 294.50Q90 314 90 344L90 613L19 603L10 685Q111 685 139.50 666.50Q168 648 168 583Z"  horiz-adv-x="286" vert-adv-y="1000"  />

      
      <glyph glyph-name="uni7e" unicode="&#x7e;" d="M185 263Q144 263 102 221L70 270Q119 332 203 332Q226 332 279.50 314.50Q333 297 368.50 297Q404 297 446 339L478 290Q428 228 345 228Q317 228 263 245.50Q209 263 185 263Z"  horiz-adv-x="548" vert-adv-y="1000"  />

      
      <glyph glyph-name="unia1" unicode="&#xa1;" d="M162 271L183-185L75-193L93 264L162 271M200 384Q171 343 130 314Q87 344 60 384Q89 427 130 454Q171 427 200 384Z"  horiz-adv-x="260" vert-adv-y="1000"  />

      
      <glyph glyph-name="unia2" unicode="&#xa2;" d="M185 256Q185 131 246 95L272 428Q226 418 205.50 377.50Q185 337 185 256M241 28Q172 45 132.50 103.50Q93 162 93 251.50Q93 341 143 407Q193 473 276 487L282 557L334 557L329 491Q399 488 444 468L420 391L324 426L297 83Q357 83 426 124L450 60Q377 22 298 22L292 22L287-47L235-47L241 28Z"  horiz-adv-x="516" vert-adv-y="1000"  />

      
      <glyph glyph-name="unia3" unicode="&#xa3;" d="M100 259L109 320L168 320Q165 344 165 369Q165 451 214 499Q263 547 348 547Q383 547 427 533L404 460L324 491Q278 485 259.50 461.50Q241 438 241 385Q241 360 246 320L280 320L369 329L361 259L258 259Q266 210 266 189Q266 121 187 65L340 65L442 76L433-6L331 0L214 0L112-6L112 65Q189 102 189 167Q189 189 178 259L100 259Z"  horiz-adv-x="516" vert-adv-y="1000"  />

      
      <glyph glyph-name="unia5" unicode="&#xa5;" d="M67 234L67 282L188 282L36 546L156 554L177 465L267 299L350 458L372 547L480 547L328 282L458 282L458 234L302 234L302 179L458 179L458 132L305 132L314 0L213 0L222 132L67 132L67 179L225 179L225 219L216 234L67 234Z"  horiz-adv-x="516" vert-adv-y="1000"  />

      
      <glyph glyph-name="unia6" unicode="&#xa6;" d="M150-145L150 224L232 224L232-145L150-145M150 320L150 681L232 689L232 320L150 320Z"  horiz-adv-x="382" vert-adv-y="1000"  />

      
      <glyph glyph-name="unia7" unicode="&#xa7;" d="M380 49Q380-24 322-74.50Q264-125 188-125Q112-125 45-99L74-10Q154-65 207.50-65Q261-65 301-36Q304-21 304 12.50Q304 46 281 70Q258 94 184.50 135Q111 176 85 209Q59 242 59 288Q59 351 108 398Q59 440 59 503.50Q59 567 114 611Q169 655 240.50 655Q312 655 365 633L338 554Q266 595 218 595Q170 595 131 570Q131 522 152 492.50Q173 463 245 421Q317 379 348.50 344.50Q380 310 380 264Q380 198 330 151Q380 107 380 49M251 202L294 176Q304 199 304 218Q304 237 301.50 249Q299 261 291 272.50Q283 284 276.50 291.50Q270 299 253.50 309.50Q237 320 225 327Q189 348 144 373Q134 350 134 322Q134 294 160 266.50Q186 239 251 202Z"  horiz-adv-x="436" vert-adv-y="1000"  />

      
      <glyph glyph-name="unia8" unicode="&#xa8;" d="M25 586Q51 624 86 647Q117 624 144 586Q117 547 86 525Q49 549 25 586M206 586Q233 626 264 647Q300 622 325 586Q302 551 264 525Q231 547 206 586Z"  horiz-adv-x="430" vert-adv-y="1000"  />

      
      <glyph glyph-name="unia9" unicode="&#xa9;" d="M346 255Q267 255 221.50 301Q176 347 176 426.50Q176 506 223 557Q270 608 345 608Q400 608 459 582L433 518L370 562Q364 563 347 563Q291 563 266 532.50Q241 502 241 436.50Q241 371 271 334.50Q301 298 347 298Q393 298 440 337L460 282Q404 255 346 255M335 712Q335 712 477.50 712Q620 712 620 427Q620 142 335 142Q50 142 50 427Q50 712 335 712M556 427Q552 551 500 604.50Q448 658 334.50 658Q221 658 170 604Q119 550 114 427Q119 304 170 250Q221 196 334.50 196Q448 196 500 249.50Q552 303 556 427Z"  horiz-adv-x="670" vert-adv-y="1000"  />

      
      <glyph glyph-name="uniaa" unicode="&#xaa;" d="M184 564L150 563L87 505L48 572Q74 594 113 607Q152 620 188 620Q316 620 316 497L316 352L330 264L255 253L252 292Q202 253 149.50 253Q97 253 68.50 279.50Q40 306 40 355Q40 404 79.50 427Q119 450 248 473Q248 525 234 544.50Q220 564 184 564M49 143L49 198L316 210L316 155L49 143M115 358Q115 336 131 323Q147 310 182 310Q217 310 248 332L248 420Q170 408 121 386Q115 366 115 358Z"  horiz-adv-x="370" vert-adv-y="1000"  />

      
      <glyph glyph-name="uniab" unicode="&#xab;" d="M258 45L223 15L30 206L33 235L223 423L258 393L129 219L258 45M465 45L430 15L237 206L240 235L430 423L465 393L336 219L465 45Z"  horiz-adv-x="500" vert-adv-y="1000"  />

      
      <glyph glyph-name="uniac" unicode="&#xac;" d="M81 196L81 265L435 265L435 93L366 93L366 196L81 196Z"  horiz-adv-x="516" vert-adv-y="1000"  />

      
      <glyph glyph-name="uniae" unicode="&#xae;" d="M335 712Q335 712 477.50 712Q620 712 620 427Q620 142 335 142Q50 142 50 427Q50 712 335 712M556 427Q552 551 500 604.50Q448 658 334.50 658Q221 658 170 604Q119 550 114 427Q119 304 170 250Q221 196 334.50 196Q448 196 500 249.50Q552 303 556 427M225 256L233 369L233 521L222 596Q297 608 329 608Q447 608 447 502Q447 420 371 401L432 314L480 269L480 256L393 252L364 311L300 406L300 429Q344 429 363 444Q382 459 382 494Q382 566 319 566Q308 566 294 563L290 487L290 368L297 256L225 256Z"  horiz-adv-x="670" vert-adv-y="1000"  />

      
      <glyph glyph-name="uniaf" unicode="&#xaf;" d="M348 552L82 552L82 624L348 624L348 552Z"  horiz-adv-x="430" vert-adv-y="1000"  />

      
      <glyph glyph-name="unib0" unicode="&#xb0;" d="M168.50 342Q168.50 342 139.25 342Q110 342 70 382Q30 422 30 480.50Q30 539 70.50 579.50Q111 620 168.50 620Q226 620 267 579Q308 538 308 480.50Q308 423 267.50 382.50Q227 342 168.50 342M168.50 570Q168.50 570 150.75 570Q133 570 110 545Q87 520 87 480.50Q87 441 110 416Q133 391 168.50 391Q204 391 227 416.50Q250 442 250 480.50Q250 519 227 544.50Q204 570 168.50 570Z"  horiz-adv-x="338" vert-adv-y="1000"  />

      
      <glyph glyph-name="unib1" unicode="&#xb1;" d="M81 243L81 312L223 312L223 454L292 454L292 312L435 312L435 243L292 243L292 110L223 110L223 243L81 243M79 0L83 69L437 69L433 0L79 0Z"  horiz-adv-x="516" vert-adv-y="1000"  />

      
      <glyph glyph-name="unib2" unicode="&#xb2;" d="M61 191L53 224Q190 335 219 373.50Q248 412 248 437.50Q248 463 229 476.50Q210 490 170.50 490Q131 490 82 467L62 519Q118 547 186 547Q254 547 289.50 521Q325 495 325 452.50Q325 410 291.50 368.50Q258 327 160 249L254 249L348 262L342 191L61 191Z"  horiz-adv-x="400" vert-adv-y="1000"  />

      
      <glyph glyph-name="unib3" unicode="&#xb3;" d="M71 186L75 233Q254 233 254 306Q254 333 223.50 344Q193 355 116 355L114 397Q191 403 219 415Q247 427 247 451Q247 475 229.50 482.50Q212 490 162 490L95 466L73 528Q132 547 197 547Q320 547 320 470Q320 411 244 381Q282 377 305.50 353Q329 329 329 294Q329 246 279 213Q229 180 157 180Q118 180 71 186Z"  horiz-adv-x="400" vert-adv-y="1000"  />

      
      <glyph glyph-name="unib4" unicode="&#xb4;" d="M145 502L122 534L261 669L320 604L145 502Z"  horiz-adv-x="430" vert-adv-y="1000"  />

      
      <glyph glyph-name="unib5" unicode="&#xb5;" d="M75-21L75 441L173 451L159 227L159 122Q159 85 171 69.50Q183 54 211 54Q272 54 343 91L331 441L427 451L427 101L442-2L343-12L343 38Q262-15 180-15Q164-15 150-12L169-209L64-219L75-21Z"  horiz-adv-x="502" vert-adv-y="1000"  />

      
      <glyph glyph-name="unib6" unicode="&#xb6;" d="M220 302Q129 302 89.50 338.50Q50 375 50 461Q50 620 258 620Q292 620 435 603L417 491L417 0L344 0L344 550Q313 555 292 556L292 0L220 0L220 302Z"  horiz-adv-x="500" vert-adv-y="1000"  />

      
      <glyph glyph-name="unib7" unicode="&#xb7;" d="M67 219Q96 260 137 289Q180 259 207 219Q178 176 137 149Q96 176 67 219Z"  horiz-adv-x="274" vert-adv-y="1000"  />

      
      <glyph glyph-name="unib8" unicode="&#xb8;" d="M177-89L223-2L256-11L232-59Q314-68 314-132Q314-176 284-200Q254-224 203-224Q152-224 116-210L147-154Q176-165 207-165Q255-165 255-132Q255-106 239-97.50Q223-89 177-89Z"  horiz-adv-x="430" vert-adv-y="1000"  />

      
      <glyph glyph-name="unib9" unicode="&#xb9;" d="M99 450L91 486L232 547L248 547L248 242L324 249L327 191L95 191L97 229L172 235L180 346L180 470L99 450Z"  horiz-adv-x="400" vert-adv-y="1000"  />

      
      <glyph glyph-name="uniba" unicode="&#xba;" d="M194 253Q194 253 157.50 253Q121 253 80.50 299Q40 345 40 431Q40 517 83 568.50Q126 620 199 620Q272 620 312.50 574Q353 528 353 442.50Q353 357 310 305Q267 253 194 253M205 309Q229 309 253 317Q278 351 278 425.50Q278 500 255.50 532Q233 564 186 564Q164 564 140 556Q115 523 115 448Q115 373 136.50 341Q158 309 205 309M55 143L55 198L336 210L336 155L55 143Z"  horiz-adv-x="393" vert-adv-y="1000"  />

      
      <glyph glyph-name="unibb" unicode="&#xbb;" d="M35 393L70 423L263 232L260 203L70 15L35 45L164 219L35 393M242 393L277 423L470 232L467 203L277 15L242 45L371 219L242 393Z"  horiz-adv-x="500" vert-adv-y="1000"  />

      
      <glyph glyph-name="unibc" unicode="&#xbc;" d="M337-35L270-15L548 641L615 621L337-35M488 101L482 145L643 357L697 357L697 159L742 167L736 101L697 101L697 1L620 1L629 86L629 101L488 101M121 519L113 555L254 616L270 616L270 311L346 318L349 260L117 260L119 298L194 304L202 415L202 539L121 519M542 154L629 154L629 270L542 154Z"  horiz-adv-x="848" vert-adv-y="1000"  />

      
      <glyph glyph-name="unibd" unicode="&#xbd;" d="M284-35L217-15L495 641L562 621L284-35M496 0L488 33Q625 144 659 189Q683 220 683 246Q683 272 664 285.50Q645 299 605.50 299Q566 299 517 276L497 328Q553 356 621 356Q689 356 724.50 330Q760 304 760 261.50Q760 219 726.50 177.50Q693 136 595 58L689 58L783 71L777 0L496 0M68 519L60 555L201 616L217 616L217 311L293 318L296 260L64 260L66 298L141 304L149 415L149 539L68 519Z"  horiz-adv-x="848" vert-adv-y="1000"  />

      
      <glyph glyph-name="unibe" unicode="&#xbe;" d="M344-35L277-15L555 641L622 621L344-35M495 101L489 145L650 357L704 357L704 159L749 167L743 101L704 101L704 1L627 1L636 86L636 101L495 101M107 259L111 306Q290 306 290 379Q290 406 259.50 417Q229 428 152 428L150 470Q227 476 255 488Q283 500 283 524Q283 548 265.50 555.50Q248 563 198 563L131 539L109 601Q168 620 233 620Q356 620 356 543Q356 484 280 454Q318 450 341.50 426Q365 402 365 367Q365 319 315 286Q265 253 193 253Q154 253 107 259M549 154L636 154L636 270L549 154Z"  horiz-adv-x="848" vert-adv-y="1000"  />

      
      <glyph glyph-name="unibf" unicode="&#xbf;" d="M42-51Q42-19 65.50 22.50Q89 64 117 95Q193 179 196 191Q182 211 126 240L147 290Q199 279 239.50 255Q280 231 280 209.50Q280 188 256.50 159.50Q233 131 205 104.50Q177 78 153.50 39.50Q130 1 130-28.50Q130-58 141.50-73.50Q153-89 174-96Q209-107 250-109L333-77L357-155Q274-170 211-170Q42-170 42-51M271 407Q243 364 201 337Q159 364 131 407Q159 450 201 477Q243 450 271 407Z"  horiz-adv-x="367" vert-adv-y="1000"  />

      
      <glyph glyph-name="unic0" unicode="&#xc0;" d="M10-1L223 534L242 603L321 609L541 0L424 0L394 151L147 151L111-1L10-1M276 507L175 221L371 221L276 507M334 685L311 653L137 756L196 820L334 685Z"  horiz-adv-x="551" vert-adv-y="1000"  />

      
      <glyph glyph-name="unic1" unicode="&#xc1;" d="M10-1L223 534L242 603L321 609L541 0L424 0L394 151L147 151L111-1L10-1M276 507L175 221L371 221L276 507M259 653L236 685L375 820L434 755L259 653Z"  horiz-adv-x="551" vert-adv-y="1000"  />

      
      <glyph glyph-name="unic2" unicode="&#xc2;" d="M10-1L223 534L242 603L321 609L541 0L424 0L394 151L147 151L111-1L10-1M276 507L175 221L371 221L276 507M170 653L147 685L285 815L423 685L400 653L285 729L170 653Z"  horiz-adv-x="551" vert-adv-y="1000"  />

      
      <glyph glyph-name="unic3" unicode="&#xc3;" d="M10-1L223 534L242 603L321 609L541 0L424 0L394 151L147 151L111-1L10-1M276 507L175 221L371 221L276 507M409 793L431 776Q390 699 361 674Q338 674 318 682.50Q298 691 221 734L161 679L139 696Q183 774 209 798Q231 798 253 788.50Q275 779 349 738L409 793Z"  horiz-adv-x="551" vert-adv-y="1000"  />

      
      <glyph glyph-name="unic4" unicode="&#xc4;" d="M10-1L223 534L242 603L321 609L541 0L424 0L394 151L147 151L111-1L10-1M276 507L175 221L371 221L276 507M312 737Q339 777 370 798Q406 773 431 737Q408 702 370 676Q337 698 312 737M131 737Q157 775 192 798Q223 775 250 737Q223 698 192 676Q155 700 131 737Z"  horiz-adv-x="551" vert-adv-y="1000"  />

      
      <glyph glyph-name="unic5" unicode="&#xc5;" d="M10-1L223 534L242 603L321 609L541 0L424 0L394 151L147 151L111-1L10-1M276 507L175 221L371 221L276 507M223.50 796.50Q223.50 796.50 235.75 808.25Q248 820 285 820Q322 820 346.50 796.50Q371 773 371 737Q371 701 346.50 677Q322 653 285 653Q248 653 223.50 677Q199 701 199 737Q199 773 223.50 796.50M242 736Q242 736 242 725.50Q242 715 254 701.50Q266 688 284.50 688Q303 688 315 701.50Q327 715 327 736Q327 757 315.50 770Q304 783 285 783Q266 783 254 770Q242 757 242 736Z"  horiz-adv-x="551" vert-adv-y="1000"  />

      
      <glyph glyph-name="unic6" unicode="&#xc6;" d="M428 344L524 344L619 354L611 279L428 279L428 197L437 70L569 70L678 82L668-6L559 0L442 0L330-6L341 151L153 151L90-1L-10-1L296 534L328 605L669 605L660 523L548 535L437 535L428 407L428 344M193 221L344 221L344 507L193 221Z"  horiz-adv-x="728" vert-adv-y="1000"  />

      
      <glyph glyph-name="unic7" unicode="&#xc7;" d="M305-13Q187-1 121 79.50Q55 160 55 300.50Q55 441 144 530.50Q233 620 381 620Q457 620 538 590L506 485L384 551Q256 551 206 497Q156 443 156 315.50Q156 188 208.50 119.50Q261 51 345 51Q429 51 511 119L543 32Q453-15 346-15L342-15L320-59Q402-68 402-132Q402-176 372-200Q342-224 291-224Q240-224 204-210L235-154Q264-165 295-165Q343-165 343-132Q343-106 327-97.50Q311-89 265-89L305-13Z"  horiz-adv-x="593" vert-adv-y="1000"  />

      
      <glyph glyph-name="unic8" unicode="&#xc8;" d="M178 407L178 344L274 344L369 354L361 279L178 279L178 197L187 70L319 70L428 82L418-6L309 0L192 0L80-6L94 198L94 408L80 605L419 605L410 523L298 535L187 535L178 407M317 685L294 653L120 756L179 820L317 685Z"  horiz-adv-x="478" vert-adv-y="1000"  />

      
      <glyph glyph-name="unic9" unicode="&#xc9;" d="M178 407L178 344L274 344L369 354L361 279L178 279L178 197L187 70L319 70L428 82L418-6L309 0L192 0L80-6L94 198L94 408L80 605L419 605L410 523L298 535L187 535L178 407M203 653L180 685L319 820L378 755L203 653Z"  horiz-adv-x="478" vert-adv-y="1000"  />

      
      <glyph glyph-name="unica" unicode="&#xca;" d="M178 407L178 344L274 344L369 354L361 279L178 279L178 197L187 70L319 70L428 82L418-6L309 0L192 0L80-6L94 198L94 408L80 605L419 605L410 523L298 535L187 535L178 407M134 653L111 685L249 815L387 685L364 653L249 729L134 653Z"  horiz-adv-x="478" vert-adv-y="1000"  />

      
      <glyph glyph-name="unicb" unicode="&#xcb;" d="M178 407L178 344L274 344L369 354L361 279L178 279L178 197L187 70L319 70L428 82L418-6L309 0L192 0L80-6L94 198L94 408L80 605L419 605L410 523L298 535L187 535L178 407M278 737Q305 777 336 798Q372 773 397 737Q374 702 336 676Q303 698 278 737M97 737Q123 775 158 798Q189 775 216 737Q189 698 158 676Q121 700 97 737Z"  horiz-adv-x="478" vert-adv-y="1000"  />

      
      <glyph glyph-name="unicc" unicode="&#xcc;" d="M85 0L99 198L99 408L85 605L197 605L183 407L183 197L197 0L85 0M210 685L187 653L13 756L72 820L210 685Z"  horiz-adv-x="282" vert-adv-y="1000"  />

      
      <glyph glyph-name="unicd" unicode="&#xcd;" d="M85 0L99 198L99 408L85 605L197 605L183 407L183 197L197 0L85 0M95 653L72 685L211 820L270 755L95 653Z"  horiz-adv-x="282" vert-adv-y="1000"  />

      
      <glyph glyph-name="unice" unicode="&#xce;" d="M85 0L99 198L99 408L85 605L197 605L183 407L183 197L197 0L85 0M26 653L3 685L141 815L279 685L256 653L141 729L26 653Z"  horiz-adv-x="282" vert-adv-y="1000"  />

      
      <glyph glyph-name="unicf" unicode="&#xcf;" d="M85 0L99 198L99 408L85 605L197 605L183 407L183 197L197 0L85 0M172 737Q199 777 230 798Q266 773 291 737Q268 702 230 676Q197 698 172 737M-9 737Q17 775 52 798Q83 775 110 737Q83 698 52 676Q15 700-9 737Z"  horiz-adv-x="282" vert-adv-y="1000"  />

      
      <glyph glyph-name="unid0" unicode="&#xd0;" d="M36 277L46 342L98 342L98 467L80 599Q185 620 279 620Q440 620 517.50 546.50Q595 473 595 320Q595 167 499.50 76Q404-15 243-15Q164-15 84 0L98 198L98 277L36 277M191 64Q231 51 283 51Q366 51 441 86Q465 120 479.50 181Q494 242 494 307Q494 436 441.50 495Q389 554 274 554Q234 554 192 546L182 407L182 342L238 342L333 352L325 277L182 277L182 197L191 64Z"  horiz-adv-x="650" vert-adv-y="1000"  />

      
      <glyph glyph-name="unid1" unicode="&#xd1;" d="M500-3L472 62L166 446L166 197L180 0L80 0L94 198L94 408L80 603L174 607L202 540L490 178L490 408L476 605L576 605L562 407L562 221L576 0L500-3M452 793L474 776Q433 699 404 674Q381 674 361 682.50Q341 691 264 734L204 679L182 696Q226 774 252 798Q274 798 296 788.50Q318 779 392 738L452 793Z"  horiz-adv-x="656" vert-adv-y="1000"  />

      
      <glyph glyph-name="unid2" unicode="&#xd2;" d="M336.50-15Q336.50-15 269.75-15Q203-15 129 67.50Q55 150 55 297Q55 444 136 532Q217 620 351 620Q485 620 559 538Q633 456 633 309Q633 162 551.50 73.50Q470-15 336.50-15M156 297Q156 180 209 115.50Q262 51 358 51Q415 51 469 74Q495 100 513.50 167.50Q532 235 532 306Q532 427 479.50 490.50Q427 554 327 554Q270 554 219 531Q193 506 174.50 437Q156 368 156 297M422 685L399 653L225 756L284 820L422 685Z"  horiz-adv-x="688" vert-adv-y="1000"  />

      
      <glyph glyph-name="unid3" unicode="&#xd3;" d="M336.50-15Q336.50-15 269.75-15Q203-15 129 67.50Q55 150 55 297Q55 444 136 532Q217 620 351 620Q485 620 559 538Q633 456 633 309Q633 162 551.50 73.50Q470-15 336.50-15M156 297Q156 180 209 115.50Q262 51 358 51Q415 51 469 74Q495 100 513.50 167.50Q532 235 532 306Q532 427 479.50 490.50Q427 554 327 554Q270 554 219 531Q193 506 174.50 437Q156 368 156 297M318 653L295 685L434 820L493 755L318 653Z"  horiz-adv-x="688" vert-adv-y="1000"  />

      
      <glyph glyph-name="unid4" unicode="&#xd4;" d="M336.50-15Q336.50-15 269.75-15Q203-15 129 67.50Q55 150 55 297Q55 444 136 532Q217 620 351 620Q485 620 559 538Q633 456 633 309Q633 162 551.50 73.50Q470-15 336.50-15M156 297Q156 180 209 115.50Q262 51 358 51Q415 51 469 74Q495 100 513.50 167.50Q532 235 532 306Q532 427 479.50 490.50Q427 554 327 554Q270 554 219 531Q193 506 174.50 437Q156 368 156 297M229 653L206 685L344 815L482 685L459 653L344 729L229 653Z"  horiz-adv-x="688" vert-adv-y="1000"  />

      
      <glyph glyph-name="unid5" unicode="&#xd5;" d="M336.50-15Q336.50-15 269.75-15Q203-15 129 67.50Q55 150 55 297Q55 444 136 532Q217 620 351 620Q485 620 559 538Q633 456 633 309Q633 162 551.50 73.50Q470-15 336.50-15M156 297Q156 180 209 115.50Q262 51 358 51Q415 51 469 74Q495 100 513.50 167.50Q532 235 532 306Q532 427 479.50 490.50Q427 554 327 554Q270 554 219 531Q193 506 174.50 437Q156 368 156 297M478 793L500 776Q459 699 430 674Q407 674 387 682.50Q367 691 290 734L230 679L208 696Q252 774 278 798Q300 798 322 788.50Q344 779 418 738L478 793Z"  horiz-adv-x="688" vert-adv-y="1000"  />

      
      <glyph glyph-name="unid6" unicode="&#xd6;" d="M336.50-15Q336.50-15 269.75-15Q203-15 129 67.50Q55 150 55 297Q55 444 136 532Q217 620 351 620Q485 620 559 538Q633 456 633 309Q633 162 551.50 73.50Q470-15 336.50-15M156 297Q156 180 209 115.50Q262 51 358 51Q415 51 469 74Q495 100 513.50 167.50Q532 235 532 306Q532 427 479.50 490.50Q427 554 327 554Q270 554 219 531Q193 506 174.50 437Q156 368 156 297M194 737Q220 775 255 798Q286 775 313 737Q286 698 255 676Q218 700 194 737M375 737Q402 777 433 798Q469 773 494 737Q471 702 433 676Q400 698 375 737Z"  horiz-adv-x="688" vert-adv-y="1000"  />

      
      <glyph glyph-name="unid7" unicode="&#xd7;" d="M130 53L81 102L209 230L81 359L130 408L258 279L386 408L435 359L307 230L435 102L386 53L258 181L130 53Z"  horiz-adv-x="516" vert-adv-y="1000"  />

      
      <glyph glyph-name="unid8" unicode="&#xd8;" d="M156 297Q156 118 273 67L363 551Q345 554 327 554Q268 554 219 531Q193 506 174.50 437Q156 368 156 297M532 306Q532 490 414 538L324 53Q332 51 372.50 51Q413 51 469 74Q495 100 513.50 167.50Q532 235 532 306M55 293Q55 444 136 532Q217 620 354 620Q370 620 375 619L391 703L443 694L428 612Q526 590 579.50 511.50Q633 433 633 311Q633 162 551.50 73.50Q470-15 333-15Q316-15 311-14L296-98L244-89L259-7Q162 15 108.50 93.50Q55 172 55 293Z"  horiz-adv-x="688" vert-adv-y="1000"  />

      
      <glyph glyph-name="unid9" unicode="&#xd9;" d="M84 263L84 408L70 605L191 605L178 407L178 300Q178 171 210.50 115.50Q243 60 320.50 60Q398 60 433.50 109Q469 158 469 268L469 407L456 605L561 605L547 408L547 275Q547-15 304-15Q84-15 84 263M394 685L371 653L197 756L256 820L394 685Z"  horiz-adv-x="631" vert-adv-y="1000"  />

      
      <glyph glyph-name="unida" unicode="&#xda;" d="M84 263L84 408L70 605L191 605L178 407L178 300Q178 171 210.50 115.50Q243 60 320.50 60Q398 60 433.50 109Q469 158 469 268L469 407L456 605L561 605L547 408L547 275Q547-15 304-15Q84-15 84 263M289 653L266 685L405 820L464 755L289 653Z"  horiz-adv-x="631" vert-adv-y="1000"  />

      
      <glyph glyph-name="unidb" unicode="&#xdb;" d="M84 263L84 408L70 605L191 605L178 407L178 300Q178 171 210.50 115.50Q243 60 320.50 60Q398 60 433.50 109Q469 158 469 268L469 407L456 605L561 605L547 408L547 275Q547-15 304-15Q84-15 84 263M200 653L177 685L315 815L453 685L430 653L315 729L200 653Z"  horiz-adv-x="631" vert-adv-y="1000"  />

      
      <glyph glyph-name="unidc" unicode="&#xdc;" d="M84 263L84 408L70 605L191 605L178 407L178 300Q178 171 210.50 115.50Q243 60 320.50 60Q398 60 433.50 109Q469 158 469 268L469 407L456 605L561 605L547 408L547 275Q547-15 304-15Q84-15 84 263M346 737Q373 777 404 798Q440 773 465 737Q442 702 404 676Q371 698 346 737M165 737Q191 775 226 798Q257 775 284 737Q257 698 226 676Q189 700 165 737Z"  horiz-adv-x="631" vert-adv-y="1000"  />

      
      <glyph glyph-name="unidd" unicode="&#xdd;" d="M203 0L217 198L217 242L15 603L147 612L171 514L262 330L348 505L372 605L490 605L301 262L301 197L315 0L203 0M221 653L198 685L337 820L396 755L221 653Z"  horiz-adv-x="495" vert-adv-y="1000"  />

      
      <glyph glyph-name="unide" unicode="&#xde;" d="M85 0L99 198L99 408L85 605L197 605L190 509Q240 514 267 514Q476 514 476 332Q476 258 434.50 213Q393 168 316 157L218 162L215 201Q302 201 340 229Q378 257 378 322Q378 454 246 454Q216 454 186 448L183 407L183 197L197 0L85 0Z"  horiz-adv-x="511" vert-adv-y="1000"  />

      
      <glyph glyph-name="unidf" unicode="&#xdf;" d="M65 0L79 198L79 416Q79 523 126 585Q173 647 247.50 647Q322 647 358 619.50Q394 592 394 549Q394 518 385.50 501Q377 484 373 475.50Q369 467 358 454Q347 441 344 436Q333 423 311 401Q311 347 381 301Q410 282 439 261.50Q468 241 488.50 207Q509 173 509 129Q509 68 460 26.50Q411-15 345.50-15Q280-15 224 9L251 96Q315 46 358 46Q401 46 431 69Q433 75 433 100.50Q433 126 413.50 151.50Q394 177 366 195Q338 213 310 233Q282 253 262.50 287Q243 321 243 360.50Q243 400 278.50 456Q314 512 314 534Q314 587 240 587Q197 587 179.50 553Q162 519 162 433L162 0L65 0Z"  horiz-adv-x="554" vert-adv-y="1000"  />

      
      <glyph glyph-name="unie0" unicode="&#xe0;" d="M173.50-15Q173.50-15 141.25-15Q109-15 74.50 19.50Q40 54 40 114Q40 174 89 203Q138 232 295 261Q295 337 278 366Q261 395 217 395Q193 395 179 393L95 319L50 394Q127 455 222 455Q379 455 379 297L379 112L397-1L304-15L300 35Q238-15 173.50-15M125 118Q125 85 145.50 66Q166 47 209.50 47Q253 47 295 78L295 204Q199 190 132 161Q125 134 125 118M292 534L269 502L95 605L154 669L292 534Z"  horiz-adv-x="454" vert-adv-y="1000"  />

      
      <glyph glyph-name="unie1" unicode="&#xe1;" d="M173.50-15Q173.50-15 141.25-15Q109-15 74.50 19.50Q40 54 40 114Q40 174 89 203Q138 232 295 261Q295 337 278 366Q261 395 217 395Q193 395 179 393L95 319L50 394Q127 455 222 455Q379 455 379 297L379 112L397-1L304-15L300 35Q238-15 173.50-15M125 118Q125 85 145.50 66Q166 47 209.50 47Q253 47 295 78L295 204Q199 190 132 161Q125 134 125 118M158 502L135 534L274 669L333 604L158 502Z"  horiz-adv-x="454" vert-adv-y="1000"  />

      
      <glyph glyph-name="unie2" unicode="&#xe2;" d="M173.50-15Q173.50-15 141.25-15Q109-15 74.50 19.50Q40 54 40 114Q40 174 89 203Q138 232 295 261Q295 337 278 366Q261 395 217 395Q193 395 179 393L95 319L50 394Q127 455 222 455Q379 455 379 297L379 112L397-1L304-15L300 35Q238-15 173.50-15M125 118Q125 85 145.50 66Q166 47 209.50 47Q253 47 295 78L295 204Q199 190 132 161Q125 134 125 118M95 502L72 534L210 664L348 534L325 502L210 578L95 502Z"  horiz-adv-x="454" vert-adv-y="1000"  />

      
      <glyph glyph-name="unie3" unicode="&#xe3;" d="M173.50-15Q173.50-15 141.25-15Q109-15 74.50 19.50Q40 54 40 114Q40 174 89 203Q138 232 295 261Q295 337 278 366Q261 395 217 395Q193 395 179 393L95 319L50 394Q127 455 222 455Q379 455 379 297L379 112L397-1L304-15L300 35Q238-15 173.50-15M125 118Q125 85 145.50 66Q166 47 209.50 47Q253 47 295 78L295 204Q199 190 132 161Q125 134 125 118M341 642L363 625Q322 548 293 523Q270 523 250 531.50Q230 540 153 583L93 528L71 545Q115 623 141 647Q163 647 185 637.50Q207 628 281 587L341 642Z"  horiz-adv-x="454" vert-adv-y="1000"  />

      
      <glyph glyph-name="unie4" unicode="&#xe4;" d="M173.50-15Q173.50-15 141.25-15Q109-15 74.50 19.50Q40 54 40 114Q40 174 89 203Q138 232 295 261Q295 337 278 366Q261 395 217 395Q193 395 179 393L95 319L50 394Q127 455 222 455Q379 455 379 297L379 112L397-1L304-15L300 35Q238-15 173.50-15M125 118Q125 85 145.50 66Q166 47 209.50 47Q253 47 295 78L295 204Q199 190 132 161Q125 134 125 118M67 586Q93 624 128 647Q159 624 186 586Q159 547 128 525Q91 549 67 586M248 586Q275 626 306 647Q342 622 367 586Q344 551 306 525Q273 547 248 586Z"  horiz-adv-x="454" vert-adv-y="1000"  />

      
      <glyph glyph-name="unie5" unicode="&#xe5;" d="M173.50-15Q173.50-15 141.25-15Q109-15 74.50 19.50Q40 54 40 114Q40 174 89 203Q138 232 295 261Q295 337 278 366Q261 395 217 395Q193 395 179 393L95 319L50 394Q127 455 222 455Q379 455 379 297L379 112L397-1L304-15L300 35Q238-15 173.50-15M125 118Q125 85 145.50 66Q166 47 209.50 47Q253 47 295 78L295 204Q199 190 132 161Q125 134 125 118M155.50 645.50Q155.50 645.50 167.75 657.25Q180 669 217 669Q254 669 278.50 645.50Q303 622 303 586Q303 550 278.50 526Q254 502 217 502Q180 502 155.50 526Q131 550 131 586Q131 622 155.50 645.50M174 585Q174 585 174 574.50Q174 564 186 550.50Q198 537 216.50 537Q235 537 247 550.50Q259 564 259 585Q259 606 247.50 619Q236 632 217 632Q198 632 186 619Q174 606 174 585Z"  horiz-adv-x="454" vert-adv-y="1000"  />

      
      <glyph glyph-name="unie6" unicode="&#xe6;" d="M166-15Q109-15 74.50 19.50Q40 54 40 114Q40 174 89 203Q138 232 295 261Q295 337 278 366Q261 395 217 395Q193 395 179 393L95 319L50 394Q127 455 221 455Q315 455 355 382Q406 454 497 454Q573 454 615 413Q657 372 657 298Q657 271 652 233L379 224Q379 139 409.50 92.50Q440 46 495 46Q566 46 626 97L653 23Q585-15 501-15Q391-15 337 62Q247-15 166-15M125 118Q125 85 145.50 66Q166 47 202 47Q265 47 317 96Q295 144 295 204Q199 190 132 161Q125 134 125 118M379 276L566 284Q565 345 546 369Q527 393 484 393Q441 393 417 384Q382 351 379 276Z"  horiz-adv-x="707" vert-adv-y="1000"  />

      
      <glyph glyph-name="unie7" unicode="&#xe7;" d="M222-13Q143-3 96.50 56.50Q50 116 50 217Q50 318 112 386Q174 454 275 454Q346 454 392 431L365 345L241 394Q188 388 165 347Q142 306 142 221.50Q142 137 170.50 91.50Q199 46 253.50 46Q308 46 371 97L398 23Q331-12 259-15L237-59Q319-68 319-132Q319-176 289-200Q259-224 208-224Q157-224 121-210L152-154Q181-165 212-165Q260-165 260-132Q260-106 244-97.50Q228-89 182-89L222-13Z"  horiz-adv-x="428" vert-adv-y="1000"  />

      
      <glyph glyph-name="unie8" unicode="&#xe8;" d="M254.50-15Q254.50-15 209.25-15Q164-15 107 45Q50 105 50 210.50Q50 316 108 385Q166 454 249.50 454Q333 454 375 413Q417 372 417 298Q417 271 412 233L142 224Q142 139 171.50 92.50Q201 46 255 46Q326 46 386 97L413 23Q345-15 254.50-15M144 276L326 284Q325 345 306 369Q287 393 244 393Q201 393 177 384Q152 357 144 276M332 534L309 502L135 605L194 669L332 534Z"  horiz-adv-x="467" vert-adv-y="1000"  />

      
      <glyph glyph-name="unie9" unicode="&#xe9;" d="M254.50-15Q254.50-15 209.25-15Q164-15 107 45Q50 105 50 210.50Q50 316 108 385Q166 454 249.50 454Q333 454 375 413Q417 372 417 298Q417 271 412 233L142 224Q142 139 171.50 92.50Q201 46 255 46Q326 46 386 97L413 23Q345-15 254.50-15M144 276L326 284Q325 345 306 369Q287 393 244 393Q201 393 177 384Q152 357 144 276M207 502L184 534L323 669L382 604L207 502Z"  horiz-adv-x="467" vert-adv-y="1000"  />

      
      <glyph glyph-name="uniea" unicode="&#xea;" d="M254.50-15Q254.50-15 209.25-15Q164-15 107 45Q50 105 50 210.50Q50 316 108 385Q166 454 249.50 454Q333 454 375 413Q417 372 417 298Q417 271 412 233L142 224Q142 139 171.50 92.50Q201 46 255 46Q326 46 386 97L413 23Q345-15 254.50-15M144 276L326 284Q325 345 306 369Q287 393 244 393Q201 393 177 384Q152 357 144 276M128 502L105 534L243 664L381 534L358 502L243 578L128 502Z"  horiz-adv-x="467" vert-adv-y="1000"  />

      
      <glyph glyph-name="unieb" unicode="&#xeb;" d="M254.50-15Q254.50-15 209.25-15Q164-15 107 45Q50 105 50 210.50Q50 316 108 385Q166 454 249.50 454Q333 454 375 413Q417 372 417 298Q417 271 412 233L142 224Q142 139 171.50 92.50Q201 46 255 46Q326 46 386 97L413 23Q345-15 254.50-15M144 276L326 284Q325 345 306 369Q287 393 244 393Q201 393 177 384Q152 357 144 276M284 586Q311 626 342 647Q378 622 403 586Q380 551 342 525Q309 547 284 586M103 586Q129 624 164 647Q195 624 222 586Q195 547 164 525Q127 549 103 586Z"  horiz-adv-x="467" vert-adv-y="1000"  />

      
      <glyph glyph-name="uniec" unicode="&#xec;" d="M58 0L72 198L72 338L57 441L160 451L149 255L149 197L160 0L58 0M182 534L159 502L-15 605L44 669L182 534Z"  horiz-adv-x="229" vert-adv-y="1000"  />

      
      <glyph glyph-name="unied" unicode="&#xed;" d="M58 0L72 198L72 338L57 441L160 451L149 255L149 197L160 0L58 0M51 502L28 534L167 669L226 604L51 502Z"  horiz-adv-x="229" vert-adv-y="1000"  />

      
      <glyph glyph-name="uniee" unicode="&#xee;" d="M58 0L72 198L72 338L57 441L160 451L149 255L149 197L160 0L58 0M-4 502L-27 534L111 664L249 534L226 502L111 578L-4 502Z"  horiz-adv-x="229" vert-adv-y="1000"  />

      
      <glyph glyph-name="unief" unicode="&#xef;" d="M58 0L72 198L72 338L57 441L160 451L149 255L149 197L160 0L58 0M142 586Q169 626 200 647Q236 622 261 586Q238 551 200 525Q167 547 142 586M-39 586Q-13 624 22 647Q53 624 80 586Q53 547 22 525Q-15 549-39 586Z"  horiz-adv-x="229" vert-adv-y="1000"  />

      
      <glyph glyph-name="unif0" unicode="&#xf0;" d="M261 46Q291 46 325 56Q358 103 358 204.50Q358 306 328.50 349.50Q299 393 237 393Q214 393 175 383Q142 337 142 235Q142 133 170.50 89.50Q199 46 261 46M313 589Q379 536 414.50 444Q450 352 450 236Q450 120 395.50 52.50Q341-15 247-15Q153-15 101.50 44Q50 103 50 209.50Q50 316 101.50 385Q153 454 224.50 454Q296 454 353 409Q331 465 309.50 496.50Q288 528 258 551L167 495L146 533L214 583Q178 603 115 623L128 666Q204 653 266 620L360 677L381 639L313 589Z"  horiz-adv-x="500" vert-adv-y="1000"  />

      
      <glyph glyph-name="unif1" unicode="&#xf1;" d="M66 0L80 198L80 339L65 442L162 452L162 401Q243 454 325 454Q376 454 403 418.50Q430 383 430 316L430 0L332-5L346 210L346 317Q346 354 334 369.50Q322 385 294 385Q233 385 162 348L162 0L66 0M376 642L398 625Q357 548 328 523Q305 523 285 531.50Q265 540 188 583L128 528L106 545Q150 623 176 647Q198 647 220 637.50Q242 628 316 587L376 642Z"  horiz-adv-x="505" vert-adv-y="1000"  />

      
      <glyph glyph-name="unif2" unicode="&#xf2;" d="M246.50-15Q246.50-15 199.75-15Q153-15 101.50 44Q50 103 50 212.50Q50 322 105 388Q160 454 253.50 454Q347 454 398.50 395.50Q450 337 450 227.50Q450 118 395 51.50Q340-15 246.50-15M261 46Q291 46 325 56Q358 103 358 204.50Q358 306 328.50 349.50Q299 393 237 393Q214 393 175 383Q142 337 142 235Q142 133 170.50 89.50Q199 46 261 46M328 534L305 502L131 605L190 669L328 534Z"  horiz-adv-x="500" vert-adv-y="1000"  />

      
      <glyph glyph-name="unif3" unicode="&#xf3;" d="M246.50-15Q246.50-15 199.75-15Q153-15 101.50 44Q50 103 50 212.50Q50 322 105 388Q160 454 253.50 454Q347 454 398.50 395.50Q450 337 450 227.50Q450 118 395 51.50Q340-15 246.50-15M261 46Q291 46 325 56Q358 103 358 204.50Q358 306 328.50 349.50Q299 393 237 393Q214 393 175 383Q142 337 142 235Q142 133 170.50 89.50Q199 46 261 46M204 502L181 534L320 669L379 604L204 502Z"  horiz-adv-x="500" vert-adv-y="1000"  />

      
      <glyph glyph-name="unif4" unicode="&#xf4;" d="M246.50-15Q246.50-15 199.75-15Q153-15 101.50 44Q50 103 50 212.50Q50 322 105 388Q160 454 253.50 454Q347 454 398.50 395.50Q450 337 450 227.50Q450 118 395 51.50Q340-15 246.50-15M261 46Q291 46 325 56Q358 103 358 204.50Q358 306 328.50 349.50Q299 393 237 393Q214 393 175 383Q142 337 142 235Q142 133 170.50 89.50Q199 46 261 46M135 502L112 534L250 664L388 534L365 502L250 578L135 502Z"  horiz-adv-x="500" vert-adv-y="1000"  />

      
      <glyph glyph-name="unif5" unicode="&#xf5;" d="M246.50-15Q246.50-15 199.75-15Q153-15 101.50 44Q50 103 50 212.50Q50 322 105 388Q160 454 253.50 454Q347 454 398.50 395.50Q450 337 450 227.50Q450 118 395 51.50Q340-15 246.50-15M261 46Q291 46 325 56Q358 103 358 204.50Q358 306 328.50 349.50Q299 393 237 393Q214 393 175 383Q142 337 142 235Q142 133 170.50 89.50Q199 46 261 46M381 642L403 625Q362 548 333 523Q310 523 290 531.50Q270 540 193 583L133 528L111 545Q155 623 181 647Q203 647 225 637.50Q247 628 321 587L381 642Z"  horiz-adv-x="500" vert-adv-y="1000"  />

      
      <glyph glyph-name="unif6" unicode="&#xf6;" d="M246.50-15Q246.50-15 199.75-15Q153-15 101.50 44Q50 103 50 212.50Q50 322 105 388Q160 454 253.50 454Q347 454 398.50 395.50Q450 337 450 227.50Q450 118 395 51.50Q340-15 246.50-15M261 46Q291 46 325 56Q358 103 358 204.50Q358 306 328.50 349.50Q299 393 237 393Q214 393 175 383Q142 337 142 235Q142 133 170.50 89.50Q199 46 261 46M100 586Q126 624 161 647Q192 624 219 586Q192 547 161 525Q124 549 100 586M281 586Q308 626 339 647Q375 622 400 586Q377 551 339 525Q306 547 281 586Z"  horiz-adv-x="500" vert-adv-y="1000"  />

      
      <glyph glyph-name="unif7" unicode="&#xf7;" d="M79 196L83 265L437 265L433 196L79 196M201 81Q225 116 260 140Q293 118 320 81Q297 46 260 21Q224 46 201 81M201 383Q225 418 260 442Q293 420 320 383Q297 348 260 323Q224 348 201 383Z"  horiz-adv-x="516" vert-adv-y="1000"  />

      
      <glyph glyph-name="unif8" unicode="&#xf8;" d="M245 47Q249 46 269 46Q289 46 325 56Q358 103 358 219.50Q358 336 305 374L245 47M255 392L237 393Q215 393 175 383Q142 337 142 219Q142 101 194 64L255 392M252 454L266 453L282 537L334 528L318 445Q382 426 416 371Q450 316 450 230Q450 118 395 51.50Q340-15 247-15L233-15L218-98L166-89L181-6Q118 12 84 68Q50 124 50 210Q50 322 105 388Q160 454 252 454Z"  horiz-adv-x="500" vert-adv-y="1000"  />

      
      <glyph glyph-name="unif9" unicode="&#xf9;" d="M75 123L75 437L173 442L159 227L159 122Q159 85 171 69.50Q183 54 211 54Q271 54 343 91L331 437L427 442L427 101L442-2L343-12L343 38Q262-15 180-15Q129-15 102 20.50Q75 56 75 123M320 534L297 502L123 605L182 669L320 534Z"  horiz-adv-x="502" vert-adv-y="1000"  />

      
      <glyph glyph-name="unifa" unicode="&#xfa;" d="M75 123L75 437L173 442L159 227L159 122Q159 85 171 69.50Q183 54 211 54Q271 54 343 91L331 437L427 442L427 101L442-2L343-12L343 38Q262-15 180-15Q129-15 102 20.50Q75 56 75 123M196 502L173 534L312 669L371 604L196 502Z"  horiz-adv-x="502" vert-adv-y="1000"  />

      
      <glyph glyph-name="unifb" unicode="&#xfb;" d="M75 123L75 437L173 442L159 227L159 122Q159 85 171 69.50Q183 54 211 54Q271 54 343 91L331 437L427 442L427 101L442-2L343-12L343 38Q262-15 180-15Q129-15 102 20.50Q75 56 75 123M136 502L113 534L251 664L389 534L366 502L251 578L136 502Z"  horiz-adv-x="502" vert-adv-y="1000"  />

      
      <glyph glyph-name="unifc" unicode="&#xfc;" d="M75 123L75 437L173 442L159 227L159 122Q159 85 171 69.50Q183 54 211 54Q271 54 343 91L331 437L427 442L427 101L442-2L343-12L343 38Q262-15 180-15Q129-15 102 20.50Q75 56 75 123M282 586Q309 626 340 647Q376 622 401 586Q378 551 340 525Q307 547 282 586M101 586Q127 624 162 647Q193 624 220 586Q193 547 162 525Q125 549 101 586Z"  horiz-adv-x="502" vert-adv-y="1000"  />

      
      <glyph glyph-name="unifd" unicode="&#xfd;" d="M15-111L112-102Q151-48 179 10L10 439L117 446L129 352L219 104Q264 220 306 340L317 439L421 439L272 59Q219-77 167.50-135Q116-193 43-200L15-111M186 502L163 534L302 669L361 604L186 502Z"  horiz-adv-x="426" vert-adv-y="1000"  />

      
      <glyph glyph-name="unife" unicode="&#xfe;" d="M78-21L78 567L65 670L176 680L162 482L162 407Q225 454 292.50 454Q360 454 401 398Q442 342 442 246Q442 128 379.50 56.50Q317-15 214-15Q183-15 162-11L172-209L67-219L78-21M162 57Q184 46 228 46Q272 46 313 56Q350 101 350 215Q350 385 261 385Q213 385 162 361L162 57Z"  horiz-adv-x="492" vert-adv-y="1000"  />

      
      <glyph glyph-name="uniff" unicode="&#xff;" d="M15-111L112-102Q151-48 179 10L10 439L117 446L129 352L219 104Q264 220 306 340L317 439L421 439L272 59Q219-77 167.50-135Q116-193 43-200L15-111M250 586Q277 626 308 647Q344 622 369 586Q346 551 308 525Q275 547 250 586M69 586Q95 624 130 647Q161 624 188 586Q161 547 130 525Q93 549 69 586Z"  horiz-adv-x="426" vert-adv-y="1000"  />

      
      <glyph glyph-name="uni0131" unicode="&#x0131;" d="M58 0L72 198L72 338L57 441L160 451L149 255L149 197L160 0L58 0Z"  horiz-adv-x="229" vert-adv-y="1000"  />

      
      <glyph glyph-name="uni0141" unicode="&#x0141;" d="M80-6L94 198L94 305L40 276L12 327L94 372L94 408L80 605L192 605L179 418L255 460L283 409L178 351L178 197L187 70L294 70L403 82L393-6L284 0L189 0L80-6Z"  horiz-adv-x="400" vert-adv-y="1000"  />

      
      <glyph glyph-name="uni0142" unicode="&#x0142;" d="M66 0L80 198L80 309L30 282L2 333L80 375L80 567L65 670L173 680L162 484L162 420L225 454L253 403L162 353L162 197L173 0L66 0Z"  horiz-adv-x="242" vert-adv-y="1000"  />

      
      <glyph glyph-name="uni0152" unicode="&#x0152;" d="M497-6L500 37Q424-15 333-15Q203-15 129 67.50Q55 150 55 296Q55 442 136.50 531Q218 620 354 620Q433 620 499 578L497 605L836 605L827 523L715 535L604 535L595 407L595 344L691 344L786 354L778 279L595 279L595 197L604 70L736 70L845 82L835-6L726 0L609 0L497-6M156 297Q156 180 209 115.50Q262 51 358 51Q387 51 429.50 62Q472 73 503 89L511 198L511 408L504 511Q418 553 346.50 553Q275 553 219 531Q193 506 174.50 437Q156 368 156 297Z"  horiz-adv-x="895" vert-adv-y="1000"  />

      
      <glyph glyph-name="uni0153" unicode="&#x0153;" d="M250.50-15Q250.50-15 201.75-15Q153-15 101.50 44Q50 103 50 212.50Q50 322 105 388Q160 454 252 454Q359 454 411 365Q464 454 565 454Q641 454 683 413Q725 372 725 298Q725 290 720 233L450 224Q450 139 479.50 92.50Q509 46 563 46Q634 46 694 97L721 23Q653-15 569-15Q456-15 401 73Q348-15 250.50-15M261 46Q291 46 325 56Q358 105 358 207.50Q358 310 328 351.50Q298 393 237 393Q214 393 175 383Q142 337 142 235Q142 133 170.50 89.50Q199 46 261 46M449 276L634 284Q633 345 614 369Q595 393 549.50 393Q504 393 482 384Q457 359 449 276Z"  horiz-adv-x="775" vert-adv-y="1000"  />

      
      <glyph glyph-name="uni0160" unicode="&#x0160;" d="M55 17L89 118Q147 80 183.50 66Q220 52 259 52Q325 52 363 92Q366 107 366 123Q366 170 334.50 202Q303 234 258.50 253Q214 272 169 293Q124 314 92.50 353Q61 392 61 450Q61 525 123.50 571Q186 617 288 617Q359 617 421 589L392 495Q308 551 253.50 551Q199 551 144 517Q144 458 175 420.50Q206 383 251 363Q296 343 340.50 323Q385 303 416 265.50Q447 228 447 169Q447 89 382.50 37Q318-15 227-15Q136-15 55 17M113 785L136 817L251 740L366 817L389 785L251 655L113 785Z"  horiz-adv-x="502" vert-adv-y="1000"  />

      
      <glyph glyph-name="uni0161" unicode="&#x0161;" d="M40 9L67 96Q138 46 186 46Q234 46 267 69Q269 75 269 99.50Q269 124 250.50 141.50Q232 159 166 193Q100 227 76.50 255.50Q53 284 53 324Q53 380 102.50 417Q152 454 218.50 454Q285 454 331 434L307 356Q244 393 201.50 393Q159 393 125 373Q125 338 143.50 317Q162 296 225 263.50Q288 231 316.50 200Q345 169 345 129Q345 68 292.50 26.50Q240-15 169.50-15Q99-15 40 9M69 634L92 666L207 589L322 666L345 634L207 504L69 634Z"  horiz-adv-x="390" vert-adv-y="1000"  />

      
      <glyph glyph-name="uni0178" unicode="&#x0178;" d="M203 0L217 198L217 242L15 603L147 612L171 514L262 330L348 505L372 605L490 605L301 262L301 197L315 0L203 0M291 737Q318 777 349 798Q385 773 410 737Q387 702 349 676Q316 698 291 737M110 737Q136 775 171 798Q202 775 229 737Q202 698 171 676Q134 700 110 737Z"  horiz-adv-x="495" vert-adv-y="1000"  />

      
      <glyph glyph-name="uni017D" unicode="&#x017D;" d="M110 785L133 817L248 740L363 817L386 785L248 655L110 785M31-8L20 38L349 536L162 536L40 500L28 605L380 605L454 614L465 567L138 70L324 70L453 110L465 0L99 0L31-8Z"  horiz-adv-x="496" vert-adv-y="1000"  />

      
      <glyph glyph-name="uni017E" unicode="&#x017E;" d="M37-6L30 28L255 374L162 374L58 351L51 444L300 434L370 445L377 411L152 65L275 65L377 87L386-5L105 5L37-6M71 634L94 666L209 589L324 666L347 634L209 504L71 634Z"  horiz-adv-x="411" vert-adv-y="1000"  />

      
      <glyph glyph-name="uni0192" unicode="&#x0192;" d="M116 245L114 283L202 310Q202 422 255.50 484.50Q309 547 397 547Q441 547 486 533L460 459L370 490Q321 485 300.50 445.50Q280 406 280 310L397 310L394 260L278 251L269 4Q265-98 212.50-157Q160-216 74-216Q32-216-12-202L14-128L101-159Q148-152 168.50-119Q189-86 191-12L200 245L116 245Z"  horiz-adv-x="516" vert-adv-y="1000"  />

      
      <glyph glyph-name="uni02C6" unicode="&#x02C6;" d="M93 502L70 534L208 664L346 534L323 502L208 578L93 502Z"  horiz-adv-x="430" vert-adv-y="1000"  />

      
      <glyph glyph-name="uni02C7" unicode="&#x02C7;" d="M77 634L100 666L215 589L330 666L353 634L215 504L77 634Z"  horiz-adv-x="430" vert-adv-y="1000"  />

      
      <glyph glyph-name="uni02D8" unicode="&#x02D8;" d="M110 659Q153 580 214 580Q275 580 320 659L357 637Q332 575 298.50 547.50Q265 520 215 520Q165 520 131 548Q97 576 73 637L110 659Z"  horiz-adv-x="430" vert-adv-y="1000"  />

      
      <glyph glyph-name="uni02D9" unicode="&#x02D9;" d="M62 603Q93 646 129 670Q168 641 196 603Q167 561 129 536Q90 561 62 603Z"  horiz-adv-x="430" vert-adv-y="1000"  />

      
      <glyph glyph-name="uni02DA" unicode="&#x02DA;" d="M153.50 645.50Q153.50 645.50 165.75 657.25Q178 669 215 669Q252 669 276.50 645.50Q301 622 301 586Q301 550 276.50 526Q252 502 215 502Q178 502 153.50 526Q129 550 129 586Q129 622 153.50 645.50M172 585Q172 585 172 574.50Q172 564 184 550.50Q196 537 214.50 537Q233 537 245 550.50Q257 564 257 585Q257 606 245.50 619Q234 632 215 632Q196 632 184 619Q172 606 172 585Z"  horiz-adv-x="430" vert-adv-y="1000"  />

      
      <glyph glyph-name="uni02DB" unicode="&#x02DB;" d="M222 0L324 0Q272-13 235-48Q198-83 198-119Q198-167 246-167Q273-167 301-150L326-188Q287-224 237.50-224Q188-224 158.50-198Q129-172 129-133.50Q129-95 154-59Q179-23 222 0Z"  horiz-adv-x="455" vert-adv-y="1000"  />

      
      <glyph glyph-name="uni02DC" unicode="&#x02DC;" d="M339 642L361 625Q320 548 291 523Q268 523 248 531.50Q228 540 151 583L91 528L69 545Q113 623 139 647Q161 647 183 637.50Q205 628 279 587L339 642Z"  horiz-adv-x="430" vert-adv-y="1000"  />

      
      <glyph glyph-name="uni02DD" unicode="&#x02DD;" d="M229 502L202 535L337 673L391 622L229 502M66 503L39 535L173 674L227 622L66 503Z"  horiz-adv-x="430" vert-adv-y="1000"  />

      
      <glyph glyph-name="uni03C0" unicode="&#x03C0;" d="M35 378L40 454L385 454L494 466L484 378L405 382L405 112L423-1L330-15L319 95L319 384L189 384L182 255L182 197L193 0L91 0L105 198L105 382L35 378Z"  horiz-adv-x="534" vert-adv-y="1000"  />

      
      <glyph glyph-name="uni2013" unicode="&#x2013;" d="M40 207L44 276L398 276L394 207L40 207Z"  horiz-adv-x="438" vert-adv-y="1000"  />

      
      <glyph glyph-name="uni2014" unicode="&#x2014;" d="M20 207L24 276L630 276L626 207L20 207Z"  horiz-adv-x="650" vert-adv-y="1000"  />

      
      <glyph glyph-name="uni2018" unicode="&#x2018;" d="M181 428Q152 387 111 358Q66 389 40 428Q63 527 138 636L172 612Q142 547 130 484Q159 462 181 428Z"  horiz-adv-x="211" vert-adv-y="1000"  />

      
      <glyph glyph-name="uni2019" unicode="&#x2019;" d="M30 561Q59 602 100 631Q145 600 171 561Q148 462 73 353L39 377Q69 442 81 505Q52 527 30 561Z"  horiz-adv-x="211" vert-adv-y="1000"  />

      
      <glyph glyph-name="uni201A" unicode="&#x201A;" d="M35 54Q64 95 105 124Q150 93 176 54Q153-45 78-154L44-130Q74-65 86-2Q57 20 35 54Z"  horiz-adv-x="226" vert-adv-y="1000"  />

      
      <glyph glyph-name="uni201C" unicode="&#x201C;" d="M181 428Q152 387 111 358Q66 389 40 428Q63 527 138 636L172 612Q142 547 130 484Q159 462 181 428M361 428Q332 387 291 358Q246 389 220 428Q243 527 318 636L352 612Q322 547 310 484Q339 462 361 428Z"  horiz-adv-x="391" vert-adv-y="1000"  />

      
      <glyph glyph-name="uni201D" unicode="&#x201D;" d="M210 561Q239 602 280 631Q325 600 351 561Q328 462 253 353L219 377Q249 442 261 505Q232 527 210 561M30 561Q59 602 100 631Q145 600 171 561Q148 462 73 353L39 377Q69 442 81 505Q52 527 30 561Z"  horiz-adv-x="391" vert-adv-y="1000"  />

      
      <glyph glyph-name="uni201E" unicode="&#x201E;" d="M35 54Q64 95 105 124Q150 93 176 54Q153-45 78-154L44-130Q74-65 86-2Q57 20 35 54M215 54Q244 95 285 124Q330 93 356 54Q333-45 258-154L224-130Q254-65 266-2Q237 20 215 54Z"  horiz-adv-x="406" vert-adv-y="1000"  />

      
      <glyph glyph-name="uni2020" unicode="&#x2020;" d="M195 397L231 397L265 0L161 0L195 397M237 407L237 443L399 472L399 378L237 407M189 443L189 407L27 378L27 472L189 443M230 451L195 451L167 613L260 613L230 451Z"  horiz-adv-x="426" vert-adv-y="1000"  />

      
      <glyph glyph-name="uni2021" unicode="&#x2021;" d="M230 451L195 451L161 613L265 613L230 451M196 162L231 162L265 0L161 0L196 162M256 307L231 216L195 216L169 307L195 397L231 397L256 307M189 206L189 170L27 141L27 235L189 206M189 443L189 407L27 378L27 472L189 443M237 407L237 443L399 472L399 378L237 407M237 170L237 206L399 235L399 141L237 170Z"  horiz-adv-x="426" vert-adv-y="1000"  />

      
      <glyph glyph-name="uni2022" unicode="&#x2022;" d="M70 243Q110 302 168 341Q229 299 266 243Q227 184 168 145Q110 182 70 243Z"  horiz-adv-x="336" vert-adv-y="1000"  />

      
      <glyph glyph-name="uni2026" unicode="&#x2026;" d="M40 54Q69 95 110 124Q153 94 180 54Q151 11 110-16Q69 11 40 54M270 54Q299 95 340 124Q383 94 410 54Q381 11 340-16Q299 11 270 54M501 54Q530 95 571 124Q614 94 641 54Q612 11 571-16Q530 11 501 54Z"  horiz-adv-x="681" vert-adv-y="1000"  />

      
      <glyph glyph-name="uni2030" unicode="&#x2030;" d="M640.50-15Q640.50-15 608.25-15Q576-15 539 29.50Q502 74 502 150Q502 226 540 271Q578 316 642 316Q706 316 743.50 271.50Q781 227 781 151Q781 75 743 30Q705-15 640.50-15M981.50-15Q981.50-15 949.25-15Q917-15 880 29.50Q843 74 843 150Q843 226 881 271Q919 316 983 316Q1047 316 1084.50 271.50Q1122 227 1122 151Q1122 75 1084 30Q1046-15 981.50-15M205.50 216Q205.50 216 173.25 216Q141 216 104 260.50Q67 305 67 381Q67 457 105 502Q143 547 207 547Q271 547 308.50 502.50Q346 458 346 382Q346 306 308 261Q270 216 205.50 216M309-26L249-2L539 558L599 534L309-26M137 379Q137 326 154.50 297Q172 268 204 268Q276 268 276 381.50Q276 495 208 495Q137 495 137 379M913 148Q913 95 930.50 66Q948 37 980 37Q1052 37 1052 150.50Q1052 264 984 264Q913 264 913 148M572 148Q572 95 589.50 66Q607 37 639 37Q711 37 711 150.50Q711 264 643 264Q572 264 572 148Z"  horiz-adv-x="1189" vert-adv-y="1000"  />

      
      <glyph glyph-name="uni2039" unicode="&#x2039;" d="M258 45L223 15L30 206L33 235L223 423L258 393L129 219L258 45Z"  horiz-adv-x="293" vert-adv-y="1000"  />

      
      <glyph glyph-name="uni203A" unicode="&#x203A;" d="M35 393L70 423L263 232L260 203L70 15L35 45L164 219L35 393Z"  horiz-adv-x="293" vert-adv-y="1000"  />

      
      <glyph glyph-name="uni2044" unicode="&#x2044;" d="M7-35L-60-15L218 641L285 621L7-35Z"  horiz-adv-x="225" vert-adv-y="1000"  />

      
      <glyph glyph-name="uni20AC" unicode="&#x20AC;" d="M25 301L25 349L80 349Q101 441 171 494Q241 547 342 547Q406 547 473 520L447 428L346 486Q257 486 216 455Q175 424 164 349L365 349L365 301L159 301Q159 251 160 246L365 246L365 199L165 199Q178 128 216 85.50Q254 43 304 43Q379 43 435 133L482 67Q400-15 298-15Q212-15 151.50 43Q91 101 75 199L25 199L25 246L70 246Q70 292 71 301L25 301Z"  horiz-adv-x="516" vert-adv-y="1000"  />

      
      <glyph glyph-name="uni2122" unicode="&#x2122;" d="M634 256L636 371L629 501L540 297L500 295L403 486L398 370L402 256L337 256L351 371L358 491L354 602L414 604L424 567L523 373L608 577L614 603L691 606L687 490L694 370L708 256L634 256M126 256L133 371L133 487L128 560L93 560L30 556L33 604L238 604L301 611L295 556L231 560L194 560L190 486L190 370L197 256L126 256Z"  horiz-adv-x="768" vert-adv-y="1000"  />

      
      <glyph glyph-name="uni2126" unicode="&#x2126;" d="M398 0L387 37Q446 64 488.50 146Q531 228 531 328Q531 428 484.50 491Q438 554 355 554Q272 554 225.50 491Q179 428 179 328Q179 228 221.50 146Q264 64 323 37L312 0L48 0L40 86L161 70L202 70Q144 125 110.50 201.50Q77 278 77 357Q77 477 152.50 548.50Q228 620 355 620Q482 620 557.50 549Q633 478 633 358Q633 281 599 203.50Q565 126 507 70L549 70L670 86L662 0L398 0Z"  horiz-adv-x="710" vert-adv-y="1000"  />

      
      <glyph glyph-name="uni2202" unicode="&#x2202;" d="M209 50Q269 50 307.50 114.50Q346 179 349 284Q288 319 245 319Q187 319 157 275Q127 231 127 161.50Q127 92 139 72Q170 50 209 50M65 657Q221 656 324.50 549Q428 442 428 281Q428 147 367 66Q306-15 205-15Q131-15 85.50 38.50Q40 92 40 179.50Q40 267 94.50 323Q149 379 237 379Q286 379 343 356Q316 509 181 579L60 575L65 657Z"  horiz-adv-x="468" vert-adv-y="1000"  />

      
      <glyph glyph-name="uni2206" unicode="&#x2206;" d="M520 0L10 0L222 618L304 621L520 0M113 70L403 70L256 523L113 70Z"  horiz-adv-x="530" vert-adv-y="1000"  />

      
      <glyph glyph-name="uni220F" unicode="&#x220F;" d="M398 70L398 408L386 572L229 572L218 407L218 72L232-125L120-125L134 73L134 408L122 570L45 566L50 648L490 648L599 660L589 566L493 571L482 407L482 68L503-122L412-135L398 70Z"  horiz-adv-x="624" vert-adv-y="1000"  />

      
      <glyph glyph-name="uni2211" unicode="&#x2211;" d="M70-74L32-19L246 285L5 620L418 620L412 549L142 549L337 285L130-2L418-2L418-74L70-74Z"  horiz-adv-x="438" vert-adv-y="1000"  />

      
      <glyph glyph-name="uni2212" unicode="&#x2212;" d="M79 196L83 265L437 265L433 196L79 196Z"  horiz-adv-x="516" vert-adv-y="1000"  />

      
      <glyph glyph-name="uni221A" unicode="&#x221A;" d="M449 591L262-126L170-126L1 306L90 306L218-19L393 656L578 656L585 580L502 591L449 591Z"  horiz-adv-x="560" vert-adv-y="1000"  />

      
      <glyph glyph-name="uni221E" unicode="&#x221E;" d="M626 300Q585 319 549 319Q513 319 483.50 295.50Q454 272 423 217Q452 163 480 139.50Q508 116 548 116Q588 116 616.50 145.50Q645 175 645 222Q645 269 626 300M145 137Q186 118 222 118Q258 118 287 141Q316 164 348 218Q315 275 288.50 298Q262 321 222.50 321Q183 321 154.50 291.50Q126 262 126 215Q126 168 145 137M221 395Q272 395 311 368.50Q350 342 386 283Q422 341 461 367Q500 393 550 393Q620 393 665.50 344Q711 295 711 218.50Q711 142 666.50 92Q622 42 553 42Q453 42 385 152Q319 44 221 44Q150 44 105 93Q60 142 60 219.50Q60 297 104.50 346Q149 395 221 395Z"  horiz-adv-x="771" vert-adv-y="1000"  />

      
      <glyph glyph-name="uni222B" unicode="&#x222B;" d="M132 279L132 359Q132 466 168 532Q204 598 295 656L327 571Q259 541 220 497Q215 379 215 310L215 169Q215 62 178.50-4Q142-70 52-128L20-43Q86-14 127 31Q132 149 132 279Z"  horiz-adv-x="367" vert-adv-y="1000"  />

      
      <glyph glyph-name="uni2248" unicode="&#x2248;" d="M446 207L478 158Q425 96 354 96Q319 96 263.50 113.50Q208 131 191 131Q144 131 102 89L70 138Q126 200 194 200Q231 200 283.50 182.50Q336 165 359 165Q404 165 446 207M446 369L478 320Q425 258 354 258Q319 258 263.50 275.50Q208 293 191 293Q144 293 102 251L70 300Q126 362 194 362Q231 362 283.50 344.50Q336 327 359 327Q404 327 446 369Z"  horiz-adv-x="548" vert-adv-y="1000"  />

      
      <glyph glyph-name="uni2260" unicode="&#x2260;" d="M81 291L81 360L253 360L272 461L316 454L298 360L435 360L435 291L286 291L263 170L435 170L435 101L250 101L228-22L184-15L205 101L81 101L81 170L218 170L240 291L81 291Z"  horiz-adv-x="516" vert-adv-y="1000"  />

      
      <glyph glyph-name="uni2264" unicode="&#x2264;" d="M155 270L437 152L428 87L79 242L79 299L428 454L437 389L155 270M79 0L83 69L437 69L433 0L79 0Z"  horiz-adv-x="516" vert-adv-y="1000"  />

      
      <glyph glyph-name="uni2265" unicode="&#x2265;" d="M79 152L361 270L79 389L88 454L437 299L437 242L88 87L79 152M79 0L83 69L437 69L433 0L79 0Z"  horiz-adv-x="516" vert-adv-y="1000"  />

      
      <glyph glyph-name="uni25CA" unicode="&#x25CA;" d="M474 275L287-71L218-74L30 275L215 619L286 622L474 275M241 26L377 275L241 523L111 275L241 26Z"  horiz-adv-x="504" vert-adv-y="1000"  />

      
      <glyph glyph-name="uniF8FF" unicode="&#xF8FF;" d="M526 295Q530 259 530 250Q591 232 628 228Q665 224 686 204.50Q707 185 714 158.50Q721 132 728.50 97Q736 62 736 6Q736-1 729-1L703-1Q697-1 697 5.50Q697 12 704 12L723 12Q723 59 705 137L700 159Q696 179 678 195Q660 211 624 214.50Q588 218 553.50 229.50Q519 241 518 243Q517 249 515.50 269Q514 289 513 296Q486 296 460 309Q457 310 457 316Q457 322 464 322Q465 322 481.50 315.50Q498 309 520 309Q542 309 547.50 315Q553 321 561.50 375.50Q570 430 577 445Q581 458 581 507Q581 556 577 576Q559 673 447 673Q363 673 316 630.50Q269 588 269 517.50Q269 447 291.50 402.50Q314 358 353 348Q359 346 359 340Q359 334 356 287.50Q353 241 351.50 239Q350 237 348 237Q322 237 265 215Q208 193 186 190Q130 182 118 136L111 107Q97 47 94 12L236 12Q243 12 243 5.50Q243-1 236-1L87-1Q80-1 80 6Q83 48 98 108L106 138Q110 162 131.50 181.50Q153 201 180 204.50Q207 208 262.50 228.50Q318 249 341 250Q345 306 346 336Q303 350 279.50 396.50Q256 443 256 519Q256 595 306 641.50Q356 688 447 688Q568 688 592 579Q595 561 595 514Q595 467 590 440Q577 408 572 363.50Q567 319 557.50 308Q548 297 526 295M507 563L512 558L494 530L481 541L507 563M515 558L520 563L546 541L533 530L515 558M517 574L510 574L505 605L522 605L517 574M509 572L506 565L475 572L481 587L509 572M520 565L518 572L546 587L552 572L520 565Z"  horiz-adv-x="816" vert-adv-y="1000"  />

      
      <glyph glyph-name="uniFB01" unicode="&#xFB01;" d="M13 371L10 410L102 439L102 457Q102 564 157.50 626Q213 688 303.50 688Q394 688 451 642L409 562L298 628Q234 626 209 592Q184 558 184 474L184 439L357 439L460 451L449 255L449 197L460 0L358 0L372 198L372 386L184 375L184 197L195 0L88 0L102 198L102 371L13 371Z"  horiz-adv-x="522" vert-adv-y="1000"  />

      
      <glyph glyph-name="uniFB02" unicode="&#xFB02;" d="M358 0L372 198L372 614L277 628Q224 615 204 582Q184 549 184 474L184 439L308 439L305 386L184 377L184 197L195 0L88 0L102 198L102 371L13 371L10 410L102 439L102 457Q102 564 157.50 626Q213 688 308 688Q351 688 394 673L465 680L454 484L454 197L465 0L358 0Z"  horiz-adv-x="534" vert-adv-y="1000"  />

      

  </font>
</defs>
</svg>
